<svg width="128" height="128" viewBox="0 0 128 128" fill="none" xmlns="http://www.w3.org/2000/svg">
<path d="M127.981 22.5139C127.981 26.5939 124.678 29.9052 120.61 29.9052C116.541 29.9052 113.238 26.5939 113.238 22.5139C113.238 18.4339 116.541 15.1226 120.61 15.1226C124.678 15.1226 127.981 18.4339 127.981 22.5139Z" fill="url(#paint0_radial_423_3219)"/>
<path d="M82.3907 109.063C107.283 98.9634 119.297 70.5423 109.224 45.5826C99.1522 20.6229 70.8081 8.57645 45.9161 18.676C21.0242 28.7756 9.01033 57.1967 19.0825 82.1564C29.1547 107.116 57.4987 119.163 82.3907 109.063Z" fill="url(#paint1_radial_423_3219)"/>
<defs>
<radialGradient id="paint0_radial_423_3219" cx="0" cy="0" r="1" gradientUnits="userSpaceOnUse" gradientTransform="translate(121.789 19.2617) scale(10.3198 10.3478)">
<stop stop-color="white"/>
<stop offset="0.25" stop-color="#F8FAFB"/>
<stop offset="0.59" stop-color="#E7EBF2"/>
<stop offset="0.97" stop-color="#CCD4E4"/>
<stop offset="1" stop-color="#CAD3E3"/>
</radialGradient>
<radialGradient id="paint1_radial_423_3219" cx="0" cy="0" r="1" gradientUnits="userSpaceOnUse" gradientTransform="translate(71.9142 42.4168) scale(68.0957 68.2809)">
<stop stop-color="white"/>
<stop offset="0.25" stop-color="#F8FAFB"/>
<stop offset="0.59" stop-color="#E7EBF2"/>
<stop offset="0.97" stop-color="#CCD4E4"/>
<stop offset="1" stop-color="#CAD3E3"/>
</radialGradient>
</defs>
</svg>
