<svg width="1279" height="432" viewBox="0 0 1279 432" fill="none" xmlns="http://www.w3.org/2000/svg">
<mask id="mask0_423_3268" style="mask-type:alpha" maskUnits="userSpaceOnUse" x="-76" y="0" width="1355" height="432">
<rect x="-76" y="0.9375" width="1355" height="430.125" fill="#D9D9D9"/>
</mask>
<g mask="url(#mask0_423_3268)">
<path d="M-206.722 228.761C-177.13 204.297 -85.9073 162.103 42.2429 189.037C202.431 222.704 491.156 237.187 613.253 150.506C735.349 63.8246 878.752 44.2855 994.471 85.9215C1087.05 119.23 1334.18 296.324 1446.17 380.708" stroke="url(#paint0_linear_423_3268)" stroke-width="11"/>
<path d="M-203.723 254.604C-174.131 230.141 -82.9087 187.947 45.2414 214.881C205.429 248.548 494.155 263.03 616.251 176.349C738.347 89.6684 881.751 70.1293 997.469 111.765C1090.04 145.074 1337.17 322.168 1449.17 406.552" stroke="url(#paint1_linear_423_3268)" stroke-width="11"/>
</g>
<defs>
<linearGradient id="paint0_linear_423_3268" x1="-195.049" y1="351.07" x2="1428.55" y2="196.12" gradientUnits="userSpaceOnUse">
<stop stop-color="white" stop-opacity="0.1"/>
<stop offset="0.5" stop-color="#5006AA"/>
<stop offset="1" stop-color="white" stop-opacity="0.1"/>
</linearGradient>
<linearGradient id="paint1_linear_423_3268" x1="-192.051" y1="376.913" x2="1431.55" y2="221.964" gradientUnits="userSpaceOnUse">
<stop stop-color="white" stop-opacity="0.1"/>
<stop offset="0.5" stop-color="#5006AA"/>
<stop offset="1" stop-color="white" stop-opacity="0.1"/>
</linearGradient>
</defs>
</svg>
