<svg width="186" height="65" viewBox="0 0 186 65" fill="none" xmlns="http://www.w3.org/2000/svg">
<path d="M47.7257 25.2423H41.2906C41.2515 25.1472 41.2124 25.0497 41.1708 24.9546C41.1512 24.9083 41.1317 24.862 41.1121 24.8132C41.0926 24.7645 41.0705 24.7157 41.0485 24.6669C40.9923 24.5353 40.9312 24.4085 40.8701 24.2793C40.8603 24.2524 40.8481 24.2281 40.8358 24.2037C40.8285 24.189 40.8236 24.1744 40.8163 24.1622C40.8089 24.1427 40.7967 24.1208 40.7869 24.1037C40.7429 24.0111 40.6965 23.9184 40.65 23.8258C40.6402 23.8038 40.6305 23.7819 40.6182 23.7599C40.6036 23.7307 40.5864 23.7014 40.5718 23.6722C40.5718 23.6722 40.5718 23.6648 40.5669 23.6648C40.562 23.6551 40.5571 23.6453 40.5498 23.6331C40.5498 23.6283 40.5449 23.6258 40.5424 23.6234C40.4862 23.5064 40.4226 23.3918 40.3591 23.2772C40.3542 23.2699 40.3517 23.2625 40.3468 23.2577C40.2588 23.0967 40.1659 22.9383 40.073 22.7822C40.0657 22.77 40.0559 22.7554 40.051 22.7432C39.963 22.5994 39.875 22.458 39.7845 22.319C39.7356 22.241 39.6867 22.1654 39.6354 22.0898C39.584 22.0118 39.5327 21.9386 39.4813 21.863C39.4349 21.7948 39.3884 21.7265 39.3371 21.6582C39.2906 21.59 39.2417 21.5217 39.1928 21.4559C39.1757 21.4339 39.161 21.412 39.1439 21.39C39.0437 21.2535 38.9385 21.117 38.8334 20.9829C38.8285 20.978 38.8261 20.9731 38.8212 20.9658C38.7698 20.9 38.7161 20.8341 38.6647 20.7732C38.6158 20.7122 38.5669 20.6537 38.5156 20.5928C38.4887 20.5586 38.4593 20.5245 38.43 20.4904C38.3811 20.4318 38.3322 20.3733 38.2833 20.3197C38.2344 20.2636 38.1855 20.2075 38.1341 20.1514C38.0119 20.0149 37.8897 19.8832 37.765 19.7516C37.7332 19.7199 37.7014 19.6858 37.6721 19.6541C37.6403 19.6224 37.6085 19.5858 37.5767 19.5565C37.5131 19.4907 37.4496 19.4249 37.3835 19.3639C37.2735 19.2542 37.1586 19.1445 37.0437 19.0396C37.0095 19.0079 36.9752 18.9738 36.9386 18.9421C36.8799 18.886 36.8212 18.8348 36.7625 18.7836C36.7038 18.73 36.6427 18.6764 36.5816 18.6276C36.5131 18.5666 36.4447 18.5081 36.3762 18.4496C36.3078 18.3911 36.2369 18.3326 36.166 18.2765V11.1229C36.2466 11.1668 36.3249 11.2107 36.4056 11.2546C36.5083 11.3107 36.6085 11.3667 36.7087 11.4277C36.8188 11.4886 36.9288 11.5545 37.0388 11.6203C37.0461 11.6252 37.0535 11.6276 37.0608 11.6349C37.0681 11.6398 37.0804 11.6423 37.0877 11.652C37.1439 11.6837 37.2002 11.7203 37.2564 11.7544C37.2784 11.7666 37.3004 11.7812 37.3249 11.7983C37.3689 11.8276 37.4178 11.8544 37.4618 11.8836C37.518 11.9153 37.5718 11.9519 37.6256 11.9885C37.6329 11.9885 37.6427 11.9958 37.6476 12.0031C37.8652 12.1396 38.0779 12.2835 38.2882 12.4298C38.3713 12.4859 38.4544 12.5444 38.5351 12.6005C38.54 12.6005 38.5449 12.6078 38.5498 12.6102C38.6672 12.6907 38.7821 12.776 38.897 12.8638C38.963 12.9101 39.029 12.9589 39.095 13.0101C39.1757 13.0661 39.2515 13.1271 39.3297 13.188C39.3371 13.1954 39.3444 13.1978 39.3517 13.2076C39.408 13.2514 39.4642 13.2929 39.5204 13.3392C39.6329 13.427 39.7454 13.5172 39.8578 13.6099C39.9141 13.6537 39.9679 13.6976 40.0217 13.744C40.2735 13.9512 40.518 14.1633 40.7625 14.3828C40.8089 14.4242 40.8554 14.4632 40.8994 14.5071C40.9996 14.5973 41.0974 14.6875 41.1952 14.7826C41.2539 14.8387 41.315 14.8923 41.3713 14.9508C41.4544 15.0289 41.5375 15.1069 41.6182 15.1922C41.672 15.2434 41.7234 15.2971 41.7747 15.3483L41.7991 15.3726C41.8701 15.4434 41.941 15.5165 42.007 15.5896C42.0265 15.6067 42.0436 15.6238 42.0559 15.6408C42.1219 15.7067 42.1855 15.7725 42.2466 15.8408C42.7551 16.382 43.2417 16.9477 43.6964 17.5353C43.7527 17.6036 43.804 17.6767 43.8578 17.745C43.9483 17.8596 44.0363 17.9766 44.1219 18.0985C44.2172 18.2302 44.3126 18.3594 44.4055 18.4911C44.4519 18.5593 44.5008 18.63 44.5497 18.6983C44.6329 18.8178 44.716 18.9421 44.7942 19.064C44.8211 19.103 44.848 19.1445 44.8725 19.1835C45.0387 19.4346 45.2001 19.6906 45.3541 19.9515C45.4348 20.0832 45.5106 20.2148 45.5864 20.3465C45.6671 20.483 45.7429 20.6196 45.8187 20.761C45.8847 20.8756 45.9458 20.9926 46.0069 21.1072C46.0998 21.2828 46.1903 21.4583 46.2759 21.6387C46.3272 21.7363 46.3737 21.8313 46.4201 21.9313C46.6548 22.4141 46.8724 22.909 47.0729 23.4113C47.0974 23.4674 47.1169 23.5259 47.1414 23.5819C47.1658 23.638 47.1854 23.6941 47.2074 23.7502C47.2539 23.8721 47.3003 23.994 47.3468 24.1183C47.4837 24.4865 47.6108 24.862 47.7282 25.2423H47.7257Z" fill="#310566"/>
<path d="M35.2613 10.8157V34.4586L33.2515 32.4544L28.6281 27.8438C28.2443 27.461 28.0291 26.9417 28.0291 26.4004V10.8157C28.0291 9.8063 27.6086 8.88467 26.9338 8.23612C26.3299 7.64365 25.5181 7.26817 24.6208 7.21697C24.5524 7.21209 24.4815 7.20965 24.413 7.20965C24.3446 7.20965 24.2712 7.20965 24.2027 7.21697V7.21209C20.4253 7.24135 16.8459 8.09714 13.6356 9.60637C14.0953 5.42735 16.9388 1.97004 20.7969 0.614417C21.7773 0.260884 22.8385 0.0536396 23.9314 0.00731449C24.0927 0 24.2516 0 24.413 0C24.5744 0 24.7333 0 24.8947 0.00731449C25.9876 0.0536396 27.0462 0.263322 28.0291 0.614417C31.8824 1.97004 34.7283 5.42735 35.188 9.60393C35.2271 9.94771 35.2491 10.2964 35.254 10.6475C35.2613 10.7035 35.2613 10.7596 35.2613 10.8157Z" fill="#310566"/>
<path d="M35.1883 55.3049C35.1761 55.4121 35.1639 55.5219 35.1467 55.6291C35.1419 55.6706 35.137 55.7096 35.1272 55.7486C35.1272 55.7486 35.1272 55.7535 35.1272 55.7559C35.1101 55.8632 35.093 55.9729 35.071 56.0802C35.0489 56.2021 35.0245 56.324 34.9976 56.4484C34.9658 56.5995 34.9291 56.7531 34.8876 56.9019C34.8631 56.9969 34.8362 57.092 34.8069 57.1871C34.802 57.1993 34.7996 57.2115 34.7947 57.2237C34.7238 57.4626 34.6431 57.6991 34.5551 57.9308C34.5111 58.0454 34.4671 58.1575 34.423 58.2697C34.423 58.277 34.4157 58.2819 34.4157 58.2892C34.379 58.3745 34.3424 58.4574 34.3057 58.5403C34.1957 58.7866 34.0734 59.0328 33.9414 59.2717C33.9218 59.3083 33.9023 59.3425 33.8851 59.379C33.8387 59.4619 33.7922 59.5448 33.7409 59.6253C33.6015 59.8569 33.4548 60.0861 33.2984 60.3055C33.247 60.3762 33.1957 60.4494 33.1419 60.5177C33.0954 60.5859 33.0465 60.6493 32.9952 60.7127C32.9707 60.7468 32.9438 60.781 32.9169 60.8127C32.8387 60.9126 32.758 61.0077 32.6749 61.1053C32.5893 61.2101 32.4989 61.3101 32.4059 61.41C32.3155 61.5075 32.225 61.6026 32.1297 61.6977C32.0441 61.7879 31.9536 61.8757 31.8632 61.9586C31.7703 62.0439 31.6798 62.1293 31.5844 62.2122C31.5209 62.2683 31.4549 62.3243 31.3913 62.378C31.2519 62.4974 31.1101 62.6096 30.9634 62.7193C30.895 62.7754 30.8241 62.8266 30.7532 62.8754C30.7287 62.8949 30.7043 62.9119 30.6798 62.929C30.604 62.9851 30.5258 63.0363 30.4475 63.0875C30.4109 63.1143 30.3742 63.1387 30.3351 63.1606C30.2715 63.2045 30.2079 63.2435 30.1444 63.2825C30.093 63.3142 30.0417 63.3484 29.9879 63.3776C29.9316 63.4118 29.8705 63.4459 29.8118 63.4825C29.7654 63.5093 29.7165 63.5385 29.6676 63.5629C29.5967 63.6044 29.5233 63.6434 29.4524 63.68C29.3473 63.736 29.2446 63.7872 29.137 63.8384C29.0221 63.8945 28.9072 63.9457 28.7923 63.9969C28.6676 64.053 28.5405 64.1042 28.4109 64.1554C28.2837 64.2066 28.1542 64.2554 28.0246 64.2992C27.0417 64.6528 25.983 64.86 24.8901 64.9063C24.7288 64.9137 24.5674 64.9137 24.4085 64.9137C24.2496 64.9137 24.0882 64.9137 23.9268 64.9063C22.8339 64.86 21.7728 64.6503 20.7924 64.2992C20.6603 64.2554 20.5332 64.2066 20.4061 64.1554C20.1665 64.0627 19.9318 63.9579 19.6995 63.8482C19.6481 63.8238 19.5943 63.797 19.543 63.7702C19.4745 63.7385 19.4085 63.7019 19.3401 63.6678C19.2667 63.6288 19.1934 63.5873 19.12 63.5483C19.0882 63.5288 19.0565 63.5142 19.0271 63.4922C18.9684 63.4605 18.9098 63.4264 18.8535 63.3923C18.7753 63.3484 18.6995 63.2996 18.6237 63.2508C18.5919 63.2338 18.565 63.2167 18.5357 63.1948C18.455 63.1436 18.3719 63.0875 18.2912 63.0338C18.2618 63.0143 18.2349 62.9973 18.2081 62.9778C18.1323 62.9266 18.0589 62.8729 17.9856 62.8193C17.944 62.79 17.9049 62.7608 17.8658 62.7291C17.7729 62.6608 17.6824 62.5901 17.5944 62.5169C17.5088 62.4487 17.4257 62.3804 17.3425 62.3073C17.1176 62.1171 16.9 61.9147 16.6922 61.7026C16.6017 61.6124 16.5137 61.5222 16.4281 61.4295C16.4208 61.4222 16.4183 61.4173 16.411 61.41C16.3181 61.3101 16.2301 61.2101 16.1421 61.1053C16.0614 61.0102 15.9807 60.9126 15.9 60.8127C15.8756 60.781 15.8487 60.7468 15.8218 60.7127C15.7704 60.6493 15.7215 60.5835 15.6751 60.5177C15.6213 60.4494 15.5699 60.3762 15.5186 60.3055C15.5088 60.2909 15.499 60.2763 15.4868 60.2616C15.4184 60.1666 15.3548 60.069 15.2912 59.9691C15.2863 59.9618 15.2839 59.9544 15.279 59.9496C15.2105 59.8447 15.1445 59.7399 15.0809 59.6302C15.0809 59.6302 15.0809 59.6253 15.0761 59.6228C15.0149 59.5156 14.9538 59.4107 14.8951 59.3034C14.8878 59.2937 14.8829 59.2815 14.8756 59.2717C14.7655 59.0694 14.6604 58.8646 14.5651 58.6549C14.5577 58.6354 14.5479 58.6208 14.5431 58.6061C14.4404 58.3843 14.3475 58.1599 14.2619 57.9308C14.2179 57.8162 14.1788 57.6991 14.1372 57.5845C14.1372 57.5772 14.1323 57.5723 14.1299 57.5675C14.0907 57.448 14.0516 57.3261 14.0149 57.2066C14.0149 57.1993 14.0101 57.1944 14.0076 57.1871C13.9758 57.0701 13.9416 56.9531 13.9123 56.836C13.8462 56.5873 13.79 56.3362 13.7436 56.0802C13.7191 55.951 13.6995 55.8242 13.68 55.695C13.6604 55.5657 13.6433 55.4365 13.6286 55.3049C13.6238 55.2537 13.6189 55.2049 13.614 55.1537C13.614 55.1439 13.614 55.1342 13.614 55.122C13.6066 55.0659 13.6042 55.0098 13.5993 54.9538C13.592 54.8977 13.5895 54.8416 13.5871 54.7855C13.5822 54.7319 13.5797 54.6807 13.5797 54.6295C13.5724 54.51 13.57 54.3857 13.5675 54.2613C13.5602 54.2052 13.5602 54.1492 13.5602 54.0931V30.46L15.5626 32.4544L20.1934 37.0723C20.5772 37.4551 20.7924 37.9744 20.7924 38.5157V54.0931C20.7924 55.0952 21.2007 56.0095 21.8682 56.658H21.8755C22.5259 57.3066 23.4207 57.7016 24.4085 57.7016C28.2617 57.7016 31.9145 56.8433 35.1834 55.3073L35.1883 55.3049Z" fill="#310566"/>
<path d="M47.7279 39.6691C47.1802 41.4392 46.4345 43.1215 45.5177 44.6844C45.0653 45.4621 44.5764 46.2082 44.0385 46.9299C42.6008 48.878 40.8698 50.5994 38.9187 52.0354C38.195 52.5645 37.4493 53.0619 36.6693 53.5008C36.2097 53.7738 35.7452 54.0323 35.261 54.2639H35.2537C35.1388 54.32 35.0263 54.3761 34.9114 54.4321L34.799 54.4858C34.6034 54.5784 34.4053 54.6687 34.2073 54.754C34.1926 54.7589 34.1828 54.7662 34.1681 54.7711C33.9701 54.8588 33.7672 54.9442 33.5642 55.0246C33.5569 55.0271 33.5471 55.0295 33.5398 55.0368C33.3418 55.1148 33.1413 55.1929 32.9408 55.2684C32.7574 55.3367 32.5765 55.4025 32.3931 55.4659C32.332 55.4854 32.2709 55.5049 32.2097 55.5269C32.0337 55.5878 31.8528 55.6439 31.6743 55.7C31.442 55.7707 31.2073 55.839 30.9701 55.9072C30.7794 55.9609 30.5863 56.0145 30.3907 56.0608C30.3907 56.0608 30.3882 56.0608 30.3858 56.0633C30.1755 56.1145 29.9653 56.1632 29.7525 56.212C29.7477 56.212 29.7379 56.2144 29.733 56.2169C29.5643 56.2535 29.3956 56.29 29.2244 56.3242C29.1438 56.3412 29.0631 56.3583 28.9799 56.3705C28.8235 56.4022 28.6621 56.429 28.5032 56.4534C28.3883 56.4729 28.2733 56.4924 28.1584 56.5095C28.024 56.529 27.8919 56.5485 27.7575 56.568C27.601 56.5875 27.4445 56.6094 27.2856 56.6241C27.2636 56.6289 27.2391 56.6314 27.2147 56.6314C27.1242 56.6387 27.0362 56.6484 26.9457 56.6558H26.9384C26.7306 56.6801 26.5203 56.6996 26.31 56.7167C26.1242 56.7313 25.9409 56.7435 25.7575 56.7533C25.5325 56.7655 25.3125 56.7752 25.0876 56.7801C24.8626 56.785 24.6352 56.7874 24.4103 56.7874C23.6915 56.7874 23.0216 56.5095 22.5204 56.0096L22.3883 55.8829C21.9458 55.3928 21.7037 54.7613 21.7037 54.0884V48.2977C22.5815 48.4879 23.4837 48.6049 24.4079 48.6537C24.7061 48.6708 25.0069 48.6756 25.3149 48.6756C26.2367 48.6756 27.1364 48.6049 28.024 48.4611C29.0117 48.3099 29.975 48.0685 30.8992 47.7491C31.4934 47.5468 32.0826 47.3078 32.6425 47.0445C32.931 46.908 33.2122 46.7617 33.486 46.6203C34.1021 46.2838 34.6914 45.9156 35.2562 45.5133C36.6865 44.5039 37.9481 43.2849 38.9921 41.9024C39.5397 41.1954 40.0214 40.4517 40.4395 39.6666H47.7206L47.7279 39.6691Z" fill="#310566"/>
<path d="M35.2614 39.8666V44.1748C33.2003 45.8108 30.7333 46.9592 28.0292 47.4395V42.0195C28.0292 41.4782 27.8141 40.9589 27.4302 40.5761L26.5182 39.6691L24.4131 37.5674L20.797 33.9638L19.286 32.457L14.7629 27.9464C13.9951 27.1808 13.5648 26.1446 13.5648 25.0621V20.1882C15.5306 18.184 18.0147 16.6894 20.7995 15.9189V22.9116C20.7995 23.4529 21.0146 23.9722 21.3985 24.355L24.4156 27.3637L29.5255 32.4595L34.0658 36.9871C34.8335 37.7527 35.2639 38.7889 35.2639 39.8715L35.2614 39.8666Z" fill="#310566"/>
<path d="M27.1198 10.8156V14.5168C26.5281 14.4534 25.9315 14.4217 25.3227 14.4217C25.088 14.4217 24.8557 14.4266 24.621 14.4387V14.4217H24.2029V14.4607C23.0293 14.5338 21.8875 14.7216 20.7971 15.0263C19.533 15.3628 18.3277 15.848 17.203 16.4527C16.6944 16.7233 16.2152 17.011 15.7385 17.3255C15.4671 17.5108 15.2006 17.7034 14.9365 17.9107C14.4524 18.2667 13.9952 18.6568 13.56 19.0664C12.2251 20.3172 11.0857 21.7752 10.2006 23.4014C9.87789 23.9939 9.59183 24.6108 9.34 25.2447C9.24464 25.4861 9.14929 25.7348 9.06861 25.9835C8.4647 27.7316 8.13708 29.6041 8.13708 31.5522C8.13708 31.857 8.14441 32.1642 8.15908 32.4568C8.296 35.0632 9.01237 37.5087 10.1835 39.6713C10.8608 40.927 11.6945 42.0948 12.6578 43.1408V53.7932C7.17376 50.7918 2.97821 45.7399 1.09314 39.6737C0.379213 37.3965 0.000244141 34.9778 0.000244141 32.4592C0.000244141 29.9406 0.379213 27.5219 1.09314 25.2471C1.64081 23.4868 2.37919 21.802 3.30583 20.2391C3.74593 19.4614 4.2447 18.7153 4.77525 17.9936C6.21289 16.0455 7.94148 14.3241 9.895 12.8881C10.6212 12.3492 11.3669 11.8543 12.1468 11.413C12.604 11.1326 13.0808 10.8839 13.56 10.6523H13.5673C13.7189 10.5767 13.8705 10.5011 14.0221 10.4304C14.2055 10.3426 14.3888 10.2597 14.5722 10.1793C14.6529 10.1403 14.7385 10.1037 14.8216 10.0671C14.7507 10.0964 14.6822 10.1305 14.6113 10.1622C17.3644 8.95775 20.2739 8.27994 23.2909 8.14584V8.18241L24.2543 8.12634C24.3545 8.11902 24.4596 8.11902 24.5672 8.12634C25.2176 8.16291 25.8313 8.43111 26.3007 8.89192C26.819 9.3893 27.1173 10.0915 27.1173 10.8181L27.1198 10.8156Z" fill="#310566"/>
<path d="M56.5441 38.5304V37.2089H59.989V38.7938C59.989 40.4444 60.7176 41.0393 61.8765 41.0393C63.0354 41.0393 63.764 40.4444 63.764 38.7279C63.764 36.8115 63.0354 35.59 60.6516 33.5103C57.6052 30.8356 56.6101 28.9533 56.6101 26.3104C56.6101 22.6775 58.4976 20.5636 62.0403 20.5636C65.5831 20.5636 67.3386 22.6775 67.3386 26.3762V27.3344H63.8936V26.1446C63.8936 24.4939 63.231 23.8649 62.0721 23.8649C60.9132 23.8649 60.2506 24.4915 60.2506 26.0787C60.2506 27.7635 61.0135 28.985 63.3973 31.0648C66.4437 33.7394 67.4046 35.59 67.4046 38.4622C67.4046 42.2267 65.4828 44.3406 61.9083 44.3406C58.3338 44.3406 56.5441 42.2267 56.5441 38.528V38.5304Z" fill="#310566"/>
<path d="M69.2285 38.5304V26.3762C69.2285 22.6775 71.182 20.5636 74.759 20.5636C78.336 20.5636 80.2895 22.6775 80.2895 26.3762V38.5304C80.2895 42.2291 78.336 44.343 74.759 44.343C71.182 44.343 69.2285 42.2291 69.2285 38.5304ZM76.6465 38.7621V26.147C76.6465 24.4964 75.9179 23.8673 74.759 23.8673C73.6001 23.8673 72.8715 24.4939 72.8715 26.147V38.7621C72.8715 40.4127 73.6001 41.0417 74.759 41.0417C75.9179 41.0417 76.6465 40.4151 76.6465 38.7621Z" fill="#310566"/>
<path d="M82.7418 20.8976H92.3799V24.1989H86.3848V30.638H91.0865V33.9393H86.3848V44.0114H82.7418V20.8951V20.8976Z" fill="#310566"/>
<path d="M97.311 24.1989H93.5017V20.8976H104.761V24.1989H100.952V44.0138H97.3085V24.1989H97.311Z" fill="#310566"/>
<path d="M111.585 38.6644V26.2468C111.585 22.6798 113.441 20.5659 116.949 20.5659C120.458 20.5659 122.313 22.6798 122.313 26.2468V28.6899H118.869V26.0152C118.869 24.4962 118.14 23.8696 117.047 23.8696C115.954 23.8696 115.226 24.4962 115.226 26.0152V38.9277C115.226 40.4467 115.954 41.0416 117.047 41.0416C118.14 41.0416 118.869 40.4467 118.869 38.9277V35.3948H122.313V38.6644C122.313 42.2314 120.458 44.3453 116.949 44.3453C113.441 44.3453 111.585 42.2314 111.585 38.6644Z" fill="#310566"/>
<path d="M127.316 20.8976H132.25L136.025 44.0138H132.382L131.719 39.4228V39.4886H127.58L126.918 44.0138H123.539L127.314 20.8976H127.316ZM131.289 36.3531L129.666 24.9279H129.6L128.01 36.3531H131.289Z" fill="#310566"/>
<path d="M137.484 38.6644V26.2468C137.484 22.6798 139.34 20.5659 142.849 20.5659C146.357 20.5659 148.213 22.6798 148.213 26.2468V28.6899H144.768V26.0152C144.768 24.4962 144.039 23.8696 142.946 23.8696C141.854 23.8696 141.125 24.4962 141.125 26.0152V38.9277C141.125 40.4467 141.854 41.0416 142.946 41.0416C144.039 41.0416 144.768 40.4467 144.768 38.9277V35.3948H148.213V38.6644C148.213 42.2314 146.357 44.3453 142.849 44.3453C139.34 44.3453 137.484 42.2314 137.484 38.6644Z" fill="#310566"/>
<path d="M153.247 24.1989H149.438V20.8976H160.697V24.1989H156.888V44.0138H153.245V24.1989H153.247Z" fill="#310566"/>
<path d="M162.323 38.5304V20.8951H165.966V38.7937C165.966 40.4443 166.66 41.0393 167.821 41.0393C168.983 41.0393 169.675 40.4443 169.675 38.7937V20.8951H173.186V38.5304C173.186 42.2291 171.33 44.343 167.755 44.343C164.181 44.343 162.325 42.2291 162.325 38.5304H162.323Z" fill="#310566"/>
<path d="M175.139 38.5304V37.2089H178.584V38.7938C178.584 40.4444 179.313 41.0393 180.472 41.0393C181.631 41.0393 182.359 40.4444 182.359 38.7279C182.359 36.8115 181.631 35.59 179.247 33.5103C176.201 30.8356 175.205 28.9533 175.205 26.3104C175.205 22.6775 177.093 20.5636 180.636 20.5636C184.178 20.5636 185.934 22.6775 185.934 26.3762V27.3344H182.489V26.1446C182.489 24.4939 181.826 23.8649 180.667 23.8649C179.509 23.8649 178.846 24.4915 178.846 26.0787C178.846 27.7635 179.609 28.985 181.993 31.0648C185.039 33.7394 186 35.59 186 38.4622C186 42.2267 184.078 44.3406 180.504 44.3406C176.929 44.3406 175.139 42.2267 175.139 38.528V38.5304Z" fill="#310566"/>
</svg>
