<svg width="290" height="248" viewBox="0 0 290 248" fill="none" xmlns="http://www.w3.org/2000/svg">
<rect x="0.468262" y="0.955078" width="288.601" height="246.208" rx="16.7586" fill="white"/>
<g clip-path="url(#clip0_1_1109)">
<path d="M144.655 86.3223C144.655 86.2944 144.655 86.2666 144.692 86.2434L144.655 86.3223ZM99.0101 105.272C99.0101 102.177 99.0101 99.0711 99.0101 95.9547C99.0101 99.0495 99.0101 102.155 99.0101 105.272C99.0101 108.128 99.0101 110.984 99.0101 113.841C99.007 110.988 99.007 108.131 99.0101 105.272Z" fill="#1F2CA1"/>
<path d="M153.841 144.832C151.539 136.848 144.369 130.999 136.095 130.716C129.059 130.474 122.01 130.609 114.965 130.651C112.423 130.651 111.065 132.131 110.986 134.74C110.927 136.514 110.963 138.287 110.986 140.065C110.986 146.982 110.986 146.954 104.029 146.657C102.8 146.606 102.482 146.425 102.846 145.074C104.858 137.646 102.21 131.755 95.4782 128.362C93.3509 132.484 90.4132 133.645 87.3097 131.612C86.1033 130.818 85.4679 129.629 84.9522 128.362C79.7767 130.818 76.8666 134.912 76.816 140.682C76.7745 145.909 79.0354 150.004 83.7689 152.492L84.5332 152.877L85.0627 153.086C86.9828 152.408 88.8201 153.383 90.7263 153.374C110.188 153.297 129.653 153.287 149.121 153.346C150.042 153.346 151.161 152.882 151.829 154.038L152.644 153.717C153.671 151.703 153.302 149.372 154.057 147.293C154.523 146.415 154.094 145.612 153.841 144.832ZM90.2291 146.647C89.4646 146.657 88.7059 146.514 87.9965 146.226C87.287 145.939 86.6408 145.514 86.0949 144.974C85.549 144.434 85.1142 143.792 84.8153 143.082C84.5165 142.373 84.3597 141.611 84.3537 140.84C84.34 139.282 84.9362 137.782 86.0128 136.664C87.0894 135.547 88.5597 134.902 90.1047 134.87C91.649 134.886 93.1273 135.503 94.2308 136.592C95.3343 137.682 95.9776 139.159 96.0262 140.715C96.0216 142.272 95.4121 143.765 94.3284 144.874C93.2447 145.983 91.773 146.62 90.2291 146.647ZM144.498 146.698C136.454 146.606 128.382 146.638 120.357 146.698C119.008 146.698 118.395 146.387 118.515 144.902C118.614 143.201 118.614 141.496 118.515 139.796C118.455 138.57 118.92 138.171 120.103 138.199C122.71 138.259 125.316 138.199 127.931 138.199C130.307 138.199 132.683 138.124 135.054 138.199C139.7 138.375 143.228 140.52 145.608 144.554C146.363 145.909 146.681 146.726 144.498 146.698Z" fill="#1F2CA1"/>
<path d="M212.738 136.188C211.538 132.884 209.115 130.178 205.978 128.636C202.841 127.095 199.233 126.838 195.913 127.921C192.587 128.996 189.816 131.348 188.198 134.468C186.581 137.588 186.247 141.224 187.27 144.591C187.767 146.299 187.546 146.703 185.792 146.661C181.505 146.563 177.209 146.596 172.899 146.661C171.407 146.661 170.542 146.661 171.416 144.702C172.429 142.432 171.518 140.338 169.519 139.47C167.521 138.602 165.546 139.526 164.454 141.791C163.856 143.04 163.331 144.326 162.769 145.598C159.629 152.724 156.47 159.84 153.348 166.975C152.284 169.407 152.763 171.329 154.596 172.457C156.755 173.78 159.053 172.857 160.301 170.085C162.672 164.816 165.007 159.529 167.36 154.246C167.507 153.1 168.387 153.318 169.114 153.318H199.315C199.983 153.318 200.752 153.151 200.945 154.135C202.248 154.209 203.549 153.974 204.744 153.448C208.063 152.213 210.765 149.707 212.262 146.475C213.759 143.243 213.93 139.547 212.738 136.188ZM200.14 146.652C198.982 146.668 197.846 146.338 196.874 145.703C195.903 145.067 195.141 144.156 194.684 143.083C194.227 142.011 194.096 140.826 194.308 139.678C194.52 138.531 195.064 137.473 195.873 136.638C196.682 135.803 197.719 135.228 198.852 134.988C199.985 134.747 201.163 134.851 202.237 135.286C203.311 135.721 204.233 136.468 204.886 137.432C205.539 138.396 205.894 139.533 205.905 140.7C205.904 142.255 205.3 143.747 204.223 144.859C203.146 145.971 201.681 146.614 200.14 146.652Z" fill="#1F2CA1"/>
<path d="M210.569 120.581C210.569 122.396 210.205 123.965 208.539 124.94C205.909 126.472 202.815 124.638 202.695 121.408C202.617 119.268 202.622 117.123 202.612 114.978C202.612 114.263 202.612 113.553 202.612 112.838C206.379 109.589 206.388 107.054 202.649 103.248C202.649 100.393 202.737 97.5377 202.7 94.6874C202.677 92.9745 202.309 91.2615 200.195 91.1826C197.893 91.0991 197.501 92.9141 197.455 94.692C197.386 97.5423 197.455 100.397 197.497 103.252C193.924 106.841 193.928 109.668 197.497 112.875C197.497 115.577 197.497 118.283 197.446 120.985C197.395 123.687 195.858 125.442 193.528 125.437C191.198 125.432 189.614 123.701 189.605 120.962C189.572 112.388 189.485 103.809 189.632 95.2352C189.775 87.1161 195.452 82.8825 203.322 84.7997C206.945 85.6817 209.192 88.0492 210.058 91.6468C210.365 93.0021 210.52 94.388 210.518 95.7783C210.574 104.046 210.537 112.314 210.569 120.581Z" fill="#1F2CA1"/>
<path d="M140.115 93.4758L139.963 92.5474C138.121 90.9458 137.518 88.6201 136.519 86.5126C132.858 83.7273 126.849 83.7552 123.202 86.5822C123.129 86.9768 123.009 87.3157 122.489 87.1625L122.443 87.2089C122.051 89.0658 121.453 90.788 119.956 92.0599L119.859 92.487C120.707 93.1137 120.389 94.0421 120.394 94.8452C120.394 101.112 120.495 107.379 120.394 113.637C120.306 118.279 120.794 122.559 125.385 125.084C125.468 125.13 125.445 125.377 125.468 125.548C125.583 125.689 125.735 125.794 125.907 125.851C126.079 125.908 126.264 125.914 126.439 125.869C127.719 125.084 129.124 125.539 130.459 125.516C135.064 125.446 137.403 123.469 138.918 119.073C139.7 116.807 139.751 114.611 139.756 112.337C139.756 106.873 139.756 101.409 139.756 95.9454C139.765 95.0959 139.475 94.2093 140.115 93.4758ZM132.453 115.972C132.453 117.466 132.31 118.998 130.537 119.495C128.861 119.959 128.032 118.827 127.314 117.568C126.338 117.429 126.421 116.682 126.421 115.981C126.421 109.101 126.421 102.222 126.421 95.3419C126.421 94.706 126.421 94.07 127.227 93.9122C127.724 92.3942 128.3 90.8715 130.302 91.2011C132.305 91.5307 132.453 93.1648 132.457 94.7524C132.454 101.824 132.453 108.897 132.453 115.972Z" fill="#1F2CA1"/>
<path d="M185.019 121.092C183.223 125.215 178.517 127.127 173.047 126.013C168.875 125.15 166.19 121.835 166.103 117.397C166.044 116.423 166.348 115.462 166.957 114.704C167.565 113.945 168.434 113.444 169.391 113.298C171.389 113.029 173.074 114.264 173.599 116.385C173.742 116.984 173.783 117.611 173.963 118.2C174.071 118.7 174.361 119.141 174.777 119.434C175.193 119.727 175.703 119.852 176.205 119.783C176.672 119.755 177.113 119.558 177.447 119.228C177.78 118.898 177.984 118.457 178.02 117.987C178.517 115.053 178.36 112.254 176.012 110.058C174.17 108.326 172.199 106.702 170.394 104.924C166.402 100.987 165.329 93.8569 167.894 88.8295C169.63 85.4407 172.632 84.438 176.146 84.4241C181.818 84.4241 185.23 87.5343 185.355 92.8449C185.401 95.0917 184.13 96.7025 182.131 96.93C180.133 97.1575 178.531 95.8995 178.07 93.6805C177.992 93.3045 177.992 92.9099 177.909 92.5339C177.711 91.6054 177.214 90.9741 176.21 90.9555C175.206 90.937 174.658 91.5915 174.492 92.5014C174.032 94.8782 174.156 97.1435 176.118 98.9075C177.895 100.495 179.802 101.967 181.51 103.605C183.776 105.823 185.324 108.68 185.95 111.801C186.576 114.922 186.252 118.161 185.019 121.092Z" fill="#1F2CA1"/>
<path d="M161.176 103.759L161.493 103.447C162.072 102.966 162.532 102.356 162.836 101.664C163.141 100.973 163.282 100.22 163.248 99.4645C163.502 98.8813 163.58 98.2356 163.473 97.6077C163.736 96.4074 163.736 95.1639 163.473 93.9636L163.335 92.9052C163.188 89.1358 161.139 86.4062 157.644 85.5521C154.048 84.6654 150.373 85.0368 146.731 85.125C146.337 85.1109 145.947 85.2013 145.599 85.387C145.25 85.5727 144.957 85.8474 144.747 86.1834C144.73 86.2082 144.716 86.2346 144.705 86.2623C144.705 86.2623 144.705 86.3134 144.668 86.3412L148.753 86.188L144.664 86.3459C143.425 87.1211 143.43 88.3884 143.43 89.6232C143.43 100.145 143.43 110.654 143.43 121.148C143.43 123.887 144.977 125.646 147.279 125.679C149.581 125.711 151.248 123.938 151.267 121.264C151.29 116.938 151.234 112.611 151.216 108.266V108.229C154.402 107.825 155.24 108.489 155.471 111.618C155.563 112.834 155.618 114.05 155.687 115.266C155.457 117.572 155.498 119.897 155.811 122.192C156.235 124.569 157.653 125.799 159.771 125.642C160.738 125.589 161.647 125.16 162.308 124.446C162.968 123.732 163.328 122.788 163.312 121.812C163.355 118.197 163.309 114.581 163.174 110.963C163.105 109.004 162.645 107.036 160.968 105.857C159.578 104.84 160.738 104.408 161.176 103.759ZM155.48 100.017C154.872 101.581 153.592 102.008 152.137 101.832C150.525 101.637 151.317 100.263 151.267 99.4228C151.152 97.5011 151.152 95.5742 151.267 93.6526C151.313 92.8031 150.539 91.4383 152.123 91.2201C153.707 91.0019 155.098 91.4522 155.586 93.1651C155.799 94.2145 155.928 95.2795 155.973 96.3497C155.839 97.5984 155.936 98.8285 155.475 100.017H155.48Z" fill="#1F2CA1"/>
<path d="M116.258 104.585C116.271 105.484 115.934 106.353 115.32 107.005C114.706 107.657 113.862 108.042 112.971 108.075C111.592 108.19 110.206 108.19 108.827 108.075C107.27 107.95 106.672 108.414 106.727 110.104C106.856 113.73 106.791 117.364 106.764 120.99C106.736 123.919 105.198 125.632 102.776 125.59C100.474 125.53 99.0236 123.812 99.0098 121.004C99.0098 118.609 99.0098 116.213 99.0098 113.818C99.0098 110.961 99.0098 108.105 99.0098 105.248C99.0098 102.154 99.0098 99.0481 99.0098 95.9317C99.0098 93.8613 99.0098 91.7925 99.0098 89.7252C99.0098 86.4757 100.391 85.083 103.614 85.0412C106.681 85.0134 109.748 84.9948 112.823 85.0412C115.273 85.0784 116.793 86.5174 116.733 88.6157C116.673 90.6025 115.172 91.9023 112.842 91.9812C112.69 91.9812 112.533 91.9812 112.381 91.9812C110.581 92.1762 107.777 91.1271 107.169 92.4083C106.073 94.7293 106.805 97.6957 106.847 100.388C106.847 101.266 107.63 101.173 108.228 101.177C109.757 101.177 111.295 101.122 112.833 101.177C113.73 101.189 114.587 101.55 115.226 102.185C115.865 102.821 116.235 103.681 116.258 104.585Z" fill="#1F2CA1"/>
<path d="M95.4599 115.16C95.4071 116.558 94.8121 117.879 93.8028 118.839C92.7936 119.799 91.4508 120.322 90.0633 120.294C88.6925 120.241 87.3961 119.651 86.45 118.65C85.5038 117.649 84.9825 116.315 84.9969 114.932C85.0113 113.549 85.5603 112.226 86.5271 111.245C87.4939 110.263 88.8023 109.701 90.1739 109.677C90.8794 109.683 91.5768 109.829 92.2257 110.109C92.8745 110.388 93.4619 110.795 93.9537 111.305C94.4454 111.815 94.8319 112.418 95.0904 113.08C95.349 113.742 95.4746 114.449 95.4599 115.16Z" fill="#FF8500"/>
<path d="M95.4551 128.362C93.3278 132.484 90.3901 133.645 87.2866 131.611C86.0802 130.817 85.4448 129.629 84.9291 128.362C84.3443 123.255 88.8476 120.879 92.1813 122.327C94.8151 123.488 95.6163 125.674 95.4551 128.362Z" fill="#FF8500"/>
<path d="M202.608 112.838C200.909 113.609 199.21 113.479 197.506 112.875C193.929 109.667 193.924 106.84 197.506 103.252C199.189 102.755 200.977 102.755 202.659 103.252C206.384 107.054 206.375 109.593 202.608 112.838Z" fill="#FF8500"/>
<path d="M151.792 154.014C151.101 154.478 150.309 154.293 149.563 154.293C130.105 154.293 110.649 154.293 91.196 154.293C89.0779 154.293 86.8953 154.423 85.0259 153.067C86.946 152.389 88.7832 153.364 90.6895 153.355C110.151 153.278 129.616 153.268 149.085 153.327C150.024 153.304 151.138 152.877 151.792 154.014Z" fill="#1F2CA1"/>
<path d="M125.454 125.516C122.659 124.969 121.181 122.991 120.255 120.507C119.853 119.505 119.612 118.444 119.542 117.365C119.279 109.427 119.334 101.489 119.509 93.5506C119.573 93.1777 119.691 92.8163 119.859 92.4783C120.707 93.105 120.389 94.0334 120.393 94.8365C120.393 101.103 120.495 107.37 120.393 113.628C120.306 118.27 120.794 122.55 125.385 125.075C125.454 125.122 125.431 125.368 125.454 125.516Z" fill="#1F2CA1"/>
<path d="M140.372 105.026C140.441 108.493 140.441 111.989 140.372 115.438C140.183 123.794 134.561 127.972 126.43 125.86C127.71 125.075 129.114 125.53 130.449 125.507C135.054 125.437 137.393 123.46 138.908 119.063C139.691 116.798 139.741 114.602 139.746 112.328C139.746 106.864 139.746 101.4 139.746 95.9364C139.746 95.1194 139.461 94.2327 140.101 93.4993C140.704 97.3058 140.28 101.163 140.372 105.026Z" fill="#1F2CA1"/>
<path d="M200.964 154.116C193.376 154.163 185.786 154.208 178.195 154.251C174.589 154.251 170.984 154.251 167.378 154.251C167.526 153.104 168.405 153.322 169.133 153.322H199.334C200.002 153.304 200.771 153.132 200.964 154.116Z" fill="#1F2CA1"/>
<path d="M144.697 86.2434C144.697 86.2434 144.697 86.2941 144.66 86.3218L144.697 86.2434Z" fill="#1F2CA1"/>
<path d="M154.288 151.953C153.901 152.742 153.533 153.457 152.621 153.694C153.648 151.679 153.28 149.349 154.035 147.269C154.242 148.82 155.098 150.315 154.288 151.953Z" fill="#1F2CA1"/>
<path d="M139.963 92.5245C138.121 90.923 137.518 88.5973 136.519 86.4897C138.72 87.8963 139.659 90.0271 139.963 92.5245Z" fill="#1F2CA1"/>
<path d="M122.443 87.1997C122.052 89.0566 121.453 90.7788 119.957 92.0508C120.014 91.1125 120.265 90.1966 120.693 89.3614C121.121 88.5263 121.717 87.79 122.443 87.1997Z" fill="#1F2CA1"/>
<path d="M123.202 86.573C123.129 86.9676 123.009 87.3065 122.489 87.1533L123.202 86.573Z" fill="#1F2CA1"/>
<path d="M127.291 117.559C126.315 117.42 126.398 116.673 126.398 115.972C126.398 109.092 126.398 102.212 126.398 95.3328C126.398 94.6969 126.398 94.0609 127.204 93.9031C127.204 101.179 127.188 108.452 127.158 115.721C126.798 116.023 126.808 116.32 127.158 116.603C127.213 116.937 127.254 117.253 127.291 117.559Z" fill="#1F2CA1"/>
<path d="M127.176 116.631C126.803 116.348 126.794 116.051 127.176 115.749C127.158 116.032 127.167 116.329 127.176 116.631Z" fill="#1F2CA1"/>
</g>
<defs>
<clipPath id="clip0_1_1109">
<rect width="136.742" height="88.6973" fill="white" transform="translate(76.793 84.3447)"/>
</clipPath>
</defs>
</svg>
