<svg width="363" height="288" viewBox="0 0 363 288" fill="none" xmlns="http://www.w3.org/2000/svg">
<g filter="url(#filter0_d_947_1338)">
<path d="M15.7138 46.875C14.2389 37.3785 21.0815 29.0499 30.7022 28.6315L283.12 17.6536C292.102 17.263 300.201 23.9466 301.498 32.8195L332.276 243.31C333.709 253.108 326.322 261.516 316.365 261.421L63.7799 259.008C55.1678 258.926 47.6397 252.442 46.3246 243.975L15.7138 46.875Z" fill="url(#paint0_linear_947_1338)"/>
<rect x="47.9338" y="17.4206" width="287.67" height="245.277" rx="16.2931" fill="white" stroke="#E3DBD8" stroke-width="0.931035"/>
<g clip-path="url(#clip0_947_1338)">
<path d="M191.655 102.322C191.655 102.294 191.655 102.267 191.692 102.243L191.655 102.322ZM146.01 121.272C146.01 118.177 146.01 115.071 146.01 111.955C146.01 115.049 146.01 118.155 146.01 121.272C146.01 124.128 146.01 126.984 146.01 129.841C146.007 126.988 146.007 124.131 146.01 121.272Z" fill="#1F2CA1"/>
<path d="M200.841 160.832C198.539 152.848 191.369 146.999 183.095 146.716C176.059 146.474 169.01 146.609 161.965 146.651C159.423 146.651 158.065 148.131 157.986 150.74C157.927 152.514 157.963 154.287 157.986 156.065C157.986 162.982 157.986 162.954 151.029 162.657C149.8 162.606 149.482 162.425 149.846 161.074C151.858 153.646 149.21 147.755 142.478 144.362C140.351 148.484 137.413 149.645 134.31 147.612C133.103 146.818 132.468 145.629 131.952 144.362C126.777 146.818 123.867 150.912 123.816 156.682C123.775 161.909 126.035 166.004 130.769 168.492L131.533 168.877L132.063 169.086C133.983 168.408 135.82 169.383 137.726 169.374C157.188 169.297 176.653 169.287 196.121 169.346C197.042 169.346 198.161 168.882 198.829 170.038L199.644 169.717C200.671 167.703 200.302 165.372 201.057 163.293C201.523 162.415 201.094 161.612 200.841 160.832ZM137.229 162.647C136.465 162.657 135.706 162.514 134.996 162.226C134.287 161.939 133.641 161.514 133.095 160.974C132.549 160.434 132.114 159.792 131.815 159.082C131.517 158.373 131.36 157.611 131.354 156.84C131.34 155.282 131.936 153.782 133.013 152.664C134.089 151.547 135.56 150.902 137.105 150.87C138.649 150.886 140.127 151.503 141.231 152.592C142.334 153.682 142.978 155.159 143.026 156.715C143.022 158.272 142.412 159.765 141.328 160.874C140.245 161.983 138.773 162.62 137.229 162.647ZM191.498 162.698C183.454 162.606 175.382 162.638 167.357 162.698C166.008 162.698 165.395 162.387 165.515 160.902C165.614 159.201 165.614 157.496 165.515 155.796C165.455 154.57 165.92 154.171 167.103 154.199C169.71 154.259 172.316 154.199 174.931 154.199C177.307 154.199 179.683 154.124 182.054 154.199C186.7 154.375 190.228 156.52 192.608 160.554C193.363 161.909 193.681 162.726 191.498 162.698Z" fill="#1F2CA1"/>
<path d="M259.738 152.188C258.538 148.884 256.115 146.178 252.978 144.636C249.841 143.095 246.233 142.838 242.913 143.921C239.587 144.996 236.816 147.348 235.198 150.468C233.581 153.588 233.247 157.224 234.27 160.591C234.767 162.299 234.546 162.703 232.792 162.661C228.505 162.563 224.209 162.596 219.899 162.661C218.407 162.661 217.542 162.661 218.416 160.702C219.429 158.432 218.518 156.338 216.519 155.47C214.521 154.602 212.546 155.526 211.454 157.791C210.856 159.04 210.331 160.326 209.769 161.598C206.629 168.724 203.47 175.84 200.348 182.975C199.284 185.407 199.763 187.329 201.596 188.457C203.755 189.78 206.053 188.857 207.301 186.085C209.672 180.816 212.007 175.529 214.36 170.246C214.507 169.1 215.387 169.318 216.114 169.318H246.315C246.983 169.318 247.752 169.151 247.945 170.135C249.248 170.209 250.549 169.974 251.744 169.448C255.063 168.213 257.765 165.707 259.262 162.475C260.759 159.243 260.93 155.547 259.738 152.188ZM247.14 162.652C245.982 162.668 244.846 162.338 243.874 161.703C242.903 161.067 242.141 160.156 241.684 159.083C241.227 158.011 241.096 156.826 241.308 155.678C241.52 154.531 242.064 153.473 242.873 152.638C243.682 151.803 244.719 151.228 245.852 150.988C246.985 150.747 248.163 150.851 249.237 151.286C250.311 151.721 251.233 152.468 251.886 153.432C252.539 154.396 252.894 155.533 252.905 156.7C252.904 158.255 252.3 159.747 251.223 160.859C250.146 161.971 248.681 162.614 247.14 162.652Z" fill="#1F2CA1"/>
<path d="M257.569 136.581C257.569 138.396 257.205 139.965 255.539 140.94C252.909 142.472 249.815 140.638 249.695 137.408C249.617 135.268 249.622 133.123 249.612 130.978C249.612 130.263 249.612 129.553 249.612 128.838C253.379 125.589 253.388 123.054 249.649 119.248C249.649 116.393 249.737 113.538 249.7 110.687C249.677 108.974 249.309 107.262 247.195 107.183C244.893 107.099 244.501 108.914 244.455 110.692C244.386 113.542 244.455 116.397 244.497 119.252C240.924 122.841 240.928 125.668 244.497 128.875C244.497 131.577 244.497 134.283 244.446 136.985C244.395 139.687 242.858 141.442 240.528 141.437C238.198 141.432 236.614 139.701 236.605 136.962C236.572 128.388 236.485 119.809 236.632 111.235C236.775 103.116 242.452 98.8825 250.322 100.8C253.945 101.682 256.192 104.049 257.058 107.647C257.365 109.002 257.52 110.388 257.518 111.778C257.574 120.046 257.537 128.314 257.569 136.581Z" fill="#1F2CA1"/>
<path d="M187.115 109.476L186.963 108.547C185.121 106.946 184.518 104.62 183.519 102.513C179.858 99.7273 173.849 99.7552 170.202 102.582C170.129 102.977 170.009 103.316 169.489 103.163L169.443 103.209C169.051 105.066 168.453 106.788 166.956 108.06L166.859 108.487C167.707 109.114 167.389 110.042 167.394 110.845C167.394 117.112 167.495 123.379 167.394 129.637C167.306 134.279 167.794 138.559 172.385 141.084C172.468 141.13 172.445 141.377 172.468 141.548C172.583 141.689 172.735 141.794 172.907 141.851C173.079 141.908 173.264 141.914 173.439 141.869C174.719 141.084 176.124 141.539 177.459 141.516C182.064 141.446 184.403 139.469 185.918 135.073C186.7 132.807 186.751 130.611 186.756 128.337C186.756 122.873 186.756 117.409 186.756 111.945C186.765 111.096 186.475 110.209 187.115 109.476ZM179.453 131.972C179.453 133.466 179.31 134.998 177.537 135.495C175.861 135.959 175.032 134.826 174.314 133.568C173.338 133.429 173.421 132.682 173.421 131.981C173.421 125.101 173.421 118.222 173.421 111.342C173.421 110.706 173.421 110.07 174.227 109.912C174.724 108.394 175.3 106.872 177.302 107.201C179.305 107.531 179.453 109.165 179.457 110.752C179.454 117.824 179.453 124.897 179.453 131.972Z" fill="#1F2CA1"/>
<path d="M232.019 137.092C230.223 141.215 225.517 143.127 220.047 142.013C215.875 141.15 213.19 137.835 213.103 133.397C213.044 132.423 213.348 131.462 213.957 130.704C214.565 129.945 215.434 129.444 216.391 129.298C218.389 129.029 220.074 130.264 220.599 132.385C220.742 132.984 220.783 133.611 220.963 134.2C221.071 134.7 221.361 135.141 221.777 135.434C222.193 135.727 222.703 135.852 223.205 135.783C223.672 135.755 224.113 135.558 224.447 135.228C224.78 134.898 224.984 134.457 225.02 133.987C225.517 131.053 225.36 128.254 223.012 126.058C221.17 124.326 219.199 122.702 217.394 120.924C213.402 116.987 212.329 109.857 214.894 104.829C216.63 101.441 219.632 100.438 223.146 100.424C228.818 100.424 232.23 103.534 232.355 108.845C232.401 111.092 231.13 112.703 229.131 112.93C227.133 113.157 225.531 111.899 225.07 109.681C224.992 109.305 224.992 108.91 224.909 108.534C224.711 107.605 224.214 106.974 223.21 106.956C222.206 106.937 221.658 107.592 221.493 108.501C221.032 110.878 221.156 113.143 223.118 114.908C224.895 116.495 226.802 117.967 228.51 119.605C230.776 121.823 232.324 124.68 232.95 127.801C233.576 130.922 233.252 134.161 232.019 137.092Z" fill="#1F2CA1"/>
<path d="M208.176 119.759L208.493 119.447C209.072 118.966 209.532 118.356 209.836 117.664C210.141 116.973 210.282 116.22 210.248 115.465C210.502 114.881 210.58 114.236 210.473 113.608C210.736 112.407 210.736 111.164 210.473 109.964L210.335 108.905C210.188 105.136 208.139 102.406 204.644 101.552C201.048 100.665 197.373 101.037 193.731 101.125C193.337 101.111 192.947 101.201 192.599 101.387C192.25 101.573 191.957 101.847 191.747 102.183C191.73 102.208 191.716 102.235 191.705 102.262C191.705 102.262 191.705 102.313 191.668 102.341L195.753 102.188L191.664 102.346C190.425 103.121 190.43 104.388 190.43 105.623C190.43 116.145 190.43 126.654 190.43 137.148C190.43 139.887 191.977 141.646 194.279 141.679C196.581 141.711 198.248 139.938 198.267 137.264C198.29 132.938 198.234 128.611 198.216 124.266V124.229C201.402 123.825 202.24 124.489 202.471 127.618C202.563 128.834 202.618 130.05 202.687 131.266C202.457 133.572 202.498 135.897 202.811 138.192C203.235 140.569 204.653 141.799 206.771 141.642C207.738 141.589 208.647 141.16 209.308 140.446C209.968 139.732 210.328 138.788 210.312 137.812C210.355 134.197 210.309 130.581 210.174 126.963C210.105 125.004 209.645 123.036 207.968 121.857C206.578 120.84 207.738 120.408 208.176 119.759ZM202.48 116.017C201.872 117.581 200.592 118.008 199.137 117.832C197.525 117.637 198.317 116.263 198.267 115.423C198.152 113.501 198.152 111.574 198.267 109.653C198.313 108.803 197.539 107.438 199.123 107.22C200.707 107.002 202.098 107.452 202.586 109.165C202.799 110.215 202.928 111.279 202.973 112.35C202.839 113.598 202.936 114.829 202.475 116.017H202.48Z" fill="#1F2CA1"/>
<path d="M163.258 120.585C163.271 121.484 162.934 122.353 162.32 123.005C161.706 123.657 160.862 124.042 159.971 124.075C158.592 124.19 157.206 124.19 155.827 124.075C154.27 123.95 153.672 124.414 153.727 126.104C153.856 129.73 153.791 133.364 153.764 136.99C153.736 139.919 152.198 141.632 149.776 141.59C147.474 141.53 146.024 139.812 146.01 137.004C146.01 134.609 146.01 132.213 146.01 129.818C146.01 126.961 146.01 124.105 146.01 121.248C146.01 118.154 146.01 115.048 146.01 111.932C146.01 109.861 146.01 107.792 146.01 105.725C146.01 102.476 147.391 101.083 150.614 101.041C153.681 101.013 156.748 100.995 159.823 101.041C162.273 101.078 163.793 102.517 163.733 104.616C163.673 106.603 162.172 107.902 159.842 107.981C159.69 107.981 159.533 107.981 159.381 107.981C157.581 108.176 154.777 107.127 154.169 108.408C153.073 110.729 153.805 113.696 153.847 116.388C153.847 117.266 154.63 117.173 155.228 117.177C156.757 117.177 158.295 117.122 159.833 117.177C160.73 117.189 161.587 117.55 162.226 118.185C162.865 118.821 163.235 119.681 163.258 120.585Z" fill="#1F2CA1"/>
<path d="M142.46 131.16C142.407 132.558 141.812 133.879 140.803 134.839C139.794 135.799 138.451 136.322 137.063 136.294C135.692 136.241 134.396 135.651 133.45 134.65C132.504 133.649 131.982 132.315 131.997 130.932C132.011 129.549 132.56 128.226 133.527 127.245C134.494 126.263 135.802 125.701 137.174 125.677C137.879 125.683 138.577 125.829 139.226 126.109C139.875 126.388 140.462 126.795 140.954 127.305C141.445 127.815 141.832 128.418 142.09 129.08C142.349 129.742 142.475 130.449 142.46 131.16Z" fill="#FF8500"/>
<path d="M142.455 144.362C140.328 148.484 137.39 149.645 134.287 147.611C133.08 146.817 132.445 145.629 131.929 144.362C131.344 139.255 135.848 136.879 139.181 138.327C141.815 139.488 142.616 141.674 142.455 144.362Z" fill="#FF8500"/>
<path d="M249.608 128.838C247.909 129.609 246.21 129.479 244.506 128.875C240.929 125.667 240.924 122.84 244.506 119.252C246.189 118.755 247.977 118.755 249.659 119.252C253.384 123.054 253.375 125.593 249.608 128.838Z" fill="#FF8500"/>
<path d="M198.792 170.014C198.101 170.478 197.309 170.293 196.563 170.293C177.105 170.293 157.649 170.293 138.196 170.293C136.078 170.293 133.895 170.423 132.026 169.067C133.946 168.389 135.783 169.364 137.69 169.355C157.151 169.278 176.616 169.268 196.085 169.327C197.024 169.304 198.138 168.877 198.792 170.014Z" fill="#1F2CA1"/>
<path d="M172.454 141.516C169.659 140.969 168.181 138.991 167.255 136.507C166.853 135.505 166.612 134.444 166.542 133.365C166.279 125.427 166.334 117.489 166.509 109.551C166.573 109.178 166.691 108.816 166.859 108.478C167.707 109.105 167.389 110.033 167.393 110.837C167.393 117.103 167.495 123.37 167.393 129.628C167.306 134.27 167.794 138.55 172.385 141.075C172.454 141.122 172.431 141.368 172.454 141.516Z" fill="#1F2CA1"/>
<path d="M187.372 121.026C187.441 124.493 187.441 127.989 187.372 131.438C187.183 139.794 181.561 143.972 173.43 141.86C174.71 141.075 176.114 141.53 177.449 141.507C182.054 141.437 184.393 139.46 185.908 135.063C186.691 132.798 186.741 130.602 186.746 128.328C186.746 122.864 186.746 117.4 186.746 111.936C186.746 111.119 186.461 110.233 187.101 109.499C187.704 113.306 187.28 117.163 187.372 121.026Z" fill="#1F2CA1"/>
<path d="M247.964 170.116C240.376 170.163 232.786 170.208 225.195 170.251C221.589 170.251 217.984 170.251 214.378 170.251C214.526 169.104 215.405 169.322 216.133 169.322H246.334C247.002 169.304 247.771 169.132 247.964 170.116Z" fill="#1F2CA1"/>
<path d="M191.697 102.243C191.697 102.243 191.697 102.294 191.66 102.322L191.697 102.243Z" fill="#1F2CA1"/>
<path d="M201.288 167.953C200.901 168.742 200.533 169.457 199.621 169.694C200.648 167.679 200.28 165.349 201.035 163.269C201.242 164.82 202.098 166.315 201.288 167.953Z" fill="#1F2CA1"/>
<path d="M186.963 108.525C185.121 106.923 184.518 104.597 183.519 102.49C185.72 103.896 186.659 106.027 186.963 108.525Z" fill="#1F2CA1"/>
<path d="M169.443 103.2C169.052 105.057 168.453 106.779 166.957 108.051C167.014 107.112 167.265 106.197 167.693 105.361C168.121 104.526 168.717 103.79 169.443 103.2Z" fill="#1F2CA1"/>
<path d="M170.202 102.573C170.129 102.968 170.009 103.306 169.489 103.153L170.202 102.573Z" fill="#1F2CA1"/>
<path d="M174.291 133.559C173.315 133.42 173.398 132.673 173.398 131.972C173.398 125.092 173.398 118.212 173.398 111.333C173.398 110.697 173.398 110.061 174.204 109.903C174.204 117.179 174.188 124.452 174.158 131.721C173.798 132.023 173.808 132.32 174.158 132.603C174.213 132.937 174.254 133.253 174.291 133.559Z" fill="#1F2CA1"/>
<path d="M174.176 132.631C173.803 132.348 173.794 132.051 174.176 131.749C174.158 132.032 174.167 132.329 174.176 132.631Z" fill="#1F2CA1"/>
</g>
</g>
<defs>
<filter id="filter0_d_947_1338" x="-1.7" y="-12.2518" width="364.469" height="323.504" filterUnits="userSpaceOnUse" color-interpolation-filters="sRGB">
<feFlood flood-opacity="0" result="BackgroundImageFix"/>
<feColorMatrix in="SourceAlpha" type="matrix" values="0 0 0 0 0 0 0 0 0 0 0 0 0 0 0 0 0 0 127 0" result="hardAlpha"/>
<feOffset dx="6" dy="4"/>
<feGaussianBlur stdDeviation="10.35"/>
<feComposite in2="hardAlpha" operator="out"/>
<feColorMatrix type="matrix" values="0 0 0 0 0 0 0 0 0 0 0 0 0 0 0 0 0 0 0.16 0"/>
<feBlend mode="normal" in2="BackgroundImageFix" result="effect1_dropShadow_947_1338"/>
<feBlend mode="normal" in="SourceGraphic" in2="effect1_dropShadow_947_1338" result="shape"/>
</filter>
<linearGradient id="paint0_linear_947_1338" x1="155.175" y1="16.9248" x2="177.856" y2="275.384" gradientUnits="userSpaceOnUse">
<stop stop-color="#5A00C7"/>
<stop offset="1" stop-color="#2C0061"/>
</linearGradient>
<clipPath id="clip0_947_1338">
<rect width="136.742" height="88.6973" fill="white" transform="translate(123.793 100.345)"/>
</clipPath>
</defs>
</svg>
