<svg width="48" height="65" viewBox="0 0 48 65" fill="none" xmlns="http://www.w3.org/2000/svg">
<path d="M47.7253 25.2423H41.2902C41.251 25.1472 41.2119 25.0497 41.1704 24.9546C41.1508 24.9083 41.1312 24.862 41.1117 24.8132C41.0921 24.7645 41.0701 24.7157 41.0481 24.6669C40.9919 24.5353 40.9308 24.4085 40.8696 24.2793C40.8599 24.2524 40.8476 24.2281 40.8354 24.2037C40.8281 24.189 40.8232 24.1744 40.8158 24.1622C40.8085 24.1427 40.7963 24.1208 40.7865 24.1037C40.7425 24.0111 40.696 23.9184 40.6496 23.8258C40.6398 23.8038 40.63 23.7819 40.6178 23.7599C40.6031 23.7307 40.586 23.7014 40.5713 23.6722C40.5713 23.6722 40.5713 23.6648 40.5665 23.6648C40.5616 23.6551 40.5567 23.6453 40.5493 23.6331C40.5493 23.6283 40.5445 23.6258 40.542 23.6234C40.4858 23.5064 40.4222 23.3918 40.3586 23.2772C40.3537 23.2699 40.3513 23.2625 40.3464 23.2577C40.2584 23.0967 40.1655 22.9383 40.0726 22.7822C40.0652 22.77 40.0555 22.7554 40.0506 22.7432C39.9626 22.5994 39.8745 22.458 39.7841 22.319C39.7352 22.241 39.6863 22.1654 39.6349 22.0898C39.5836 22.0118 39.5322 21.9386 39.4809 21.863C39.4344 21.7948 39.388 21.7265 39.3366 21.6582C39.2902 21.59 39.2413 21.5217 39.1924 21.4559C39.1753 21.4339 39.1606 21.412 39.1435 21.39C39.0432 21.2535 38.9381 21.117 38.833 20.9829C38.8281 20.978 38.8256 20.9731 38.8208 20.9658C38.7694 20.9 38.7156 20.8341 38.6643 20.7732C38.6154 20.7122 38.5665 20.6537 38.5151 20.5928C38.4882 20.5586 38.4589 20.5245 38.4296 20.4904C38.3807 20.4318 38.3318 20.3733 38.2829 20.3197C38.234 20.2636 38.1851 20.2075 38.1337 20.1514C38.0115 20.0149 37.8892 19.8832 37.7645 19.7516C37.7327 19.7199 37.701 19.6858 37.6716 19.6541C37.6398 19.6224 37.6081 19.5858 37.5763 19.5565C37.5127 19.4907 37.4491 19.4249 37.3831 19.3639C37.2731 19.2542 37.1582 19.1445 37.0433 19.0396C37.009 19.0079 36.9748 18.9738 36.9381 18.9421C36.8795 18.886 36.8208 18.8348 36.7621 18.7836C36.7034 18.73 36.6423 18.6764 36.5812 18.6276C36.5127 18.5666 36.4443 18.5081 36.3758 18.4496C36.3073 18.3911 36.2364 18.3326 36.1655 18.2765V11.1229C36.2462 11.1668 36.3245 11.2107 36.4051 11.2546C36.5078 11.3107 36.6081 11.3667 36.7083 11.4277C36.8183 11.4886 36.9284 11.5545 37.0384 11.6203C37.0457 11.6252 37.053 11.6276 37.0604 11.6349C37.0677 11.6398 37.0799 11.6423 37.0873 11.652C37.1435 11.6837 37.1997 11.7203 37.256 11.7544C37.278 11.7666 37.3 11.7812 37.3244 11.7983C37.3684 11.8276 37.4173 11.8544 37.4614 11.8836C37.5176 11.9153 37.5714 11.9519 37.6252 11.9885C37.6325 11.9885 37.6423 11.9958 37.6472 12.0031C37.8648 12.1396 38.0775 12.2835 38.2878 12.4298C38.3709 12.4859 38.454 12.5444 38.5347 12.6005C38.5396 12.6005 38.5445 12.6078 38.5494 12.6102C38.6667 12.6907 38.7816 12.776 38.8966 12.8638C38.9626 12.9101 39.0286 12.9589 39.0946 13.0101C39.1753 13.0661 39.2511 13.1271 39.3293 13.188C39.3366 13.1954 39.344 13.1978 39.3513 13.2076C39.4075 13.2514 39.4638 13.2929 39.52 13.3392C39.6325 13.427 39.745 13.5172 39.8574 13.6099C39.9137 13.6537 39.9674 13.6976 40.0212 13.744C40.2731 13.9512 40.5176 14.1633 40.7621 14.3828C40.8085 14.4242 40.855 14.4632 40.899 14.5071C40.9992 14.5973 41.097 14.6875 41.1948 14.7826C41.2535 14.8387 41.3146 14.8923 41.3709 14.9508C41.454 15.0289 41.5371 15.1069 41.6178 15.1922C41.6716 15.2434 41.7229 15.2971 41.7743 15.3483L41.7987 15.3726C41.8696 15.4434 41.9405 15.5165 42.0065 15.5896C42.0261 15.6067 42.0432 15.6238 42.0554 15.6408C42.1215 15.7067 42.185 15.7725 42.2462 15.8408C42.7547 16.382 43.2412 16.9477 43.696 17.5353C43.7522 17.6036 43.8036 17.6767 43.8574 17.745C43.9478 17.8596 44.0359 17.9766 44.1214 18.0985C44.2168 18.2302 44.3121 18.3594 44.4051 18.4911C44.4515 18.5593 44.5004 18.63 44.5493 18.6983C44.6324 18.8178 44.7156 18.9421 44.7938 19.064C44.8207 19.103 44.8476 19.1445 44.872 19.1835C45.0383 19.4346 45.1997 19.6906 45.3537 19.9515C45.4344 20.0832 45.5102 20.2148 45.586 20.3465C45.6666 20.483 45.7424 20.6196 45.8182 20.761C45.8843 20.8756 45.9454 20.9926 46.0065 21.1072C46.0994 21.2828 46.1899 21.4583 46.2754 21.6387C46.3268 21.7363 46.3732 21.8313 46.4197 21.9313C46.6544 22.4141 46.872 22.909 47.0725 23.4113C47.097 23.4674 47.1165 23.5259 47.141 23.5819C47.1654 23.638 47.185 23.6941 47.207 23.7502C47.2534 23.8721 47.2999 23.994 47.3463 24.1183C47.4833 24.4865 47.6104 24.862 47.7278 25.2423H47.7253Z" fill="#310566"/>
<path d="M35.2609 10.8157V34.4586L33.2512 32.4544L28.6278 27.8438C28.2439 27.461 28.0287 26.9417 28.0287 26.4004V10.8157C28.0287 9.8063 27.6082 8.88467 26.9334 8.23612C26.3295 7.64365 25.5178 7.26817 24.6205 7.21697C24.552 7.21209 24.4811 7.20965 24.4126 7.20965C24.3442 7.20965 24.2708 7.20965 24.2024 7.21697V7.21209C20.4249 7.24135 16.8455 8.09714 13.6353 9.60637C14.0949 5.42735 16.9384 1.97004 20.7965 0.614417C21.777 0.260884 22.8381 0.0536396 23.931 0.00731449C24.0924 0 24.2513 0 24.4126 0C24.574 0 24.7329 0 24.8943 0.00731449C25.9872 0.0536396 27.0459 0.263322 28.0287 0.614417C31.882 1.97004 34.7279 5.42735 35.1876 9.60393C35.2267 9.94771 35.2487 10.2964 35.2536 10.6475C35.2609 10.7035 35.2609 10.7596 35.2609 10.8157Z" fill="#310566"/>
<path d="M35.1882 55.3049C35.176 55.4121 35.1637 55.5219 35.1466 55.6291C35.1417 55.6706 35.1368 55.7096 35.1271 55.7486C35.1271 55.7486 35.1271 55.7535 35.1271 55.7559C35.1099 55.8632 35.0928 55.9729 35.0708 56.0802C35.0488 56.2021 35.0244 56.324 34.9975 56.4484C34.9657 56.5995 34.929 56.7531 34.8875 56.9019C34.863 56.9969 34.8361 57.092 34.8068 57.1871C34.8019 57.1993 34.7994 57.2115 34.7945 57.2237C34.7236 57.4626 34.643 57.6991 34.5549 57.9308C34.5109 58.0454 34.4669 58.1575 34.4229 58.2697C34.4229 58.277 34.4156 58.2819 34.4156 58.2892C34.3789 58.3745 34.3422 58.4574 34.3056 58.5403C34.1955 58.7866 34.0733 59.0328 33.9413 59.2717C33.9217 59.3083 33.9021 59.3425 33.885 59.379C33.8386 59.4619 33.7921 59.5448 33.7408 59.6253C33.6014 59.8569 33.4547 60.0861 33.2982 60.3055C33.2469 60.3762 33.1955 60.4494 33.1418 60.5177C33.0953 60.5859 33.0464 60.6493 32.9951 60.7127C32.9706 60.7468 32.9437 60.781 32.9168 60.8127C32.8386 60.9126 32.7579 61.0077 32.6748 61.1053C32.5892 61.2101 32.4987 61.3101 32.4058 61.41C32.3154 61.5075 32.2249 61.6026 32.1295 61.6977C32.044 61.7879 31.9535 61.8757 31.863 61.9586C31.7701 62.0439 31.6797 62.1293 31.5843 62.2122C31.5207 62.2683 31.4547 62.3243 31.3912 62.378C31.2518 62.4974 31.11 62.6096 30.9633 62.7193C30.8948 62.7754 30.8239 62.8266 30.753 62.8754C30.7286 62.8949 30.7041 62.9119 30.6797 62.929C30.6039 62.9851 30.5257 63.0363 30.4474 63.0875C30.4107 63.1143 30.3741 63.1387 30.3349 63.1606C30.2714 63.2045 30.2078 63.2435 30.1442 63.2825C30.0929 63.3142 30.0415 63.3484 29.9878 63.3776C29.9315 63.4118 29.8704 63.4459 29.8117 63.4825C29.7653 63.5093 29.7164 63.5385 29.6675 63.5629C29.5966 63.6044 29.5232 63.6434 29.4523 63.68C29.3472 63.736 29.2445 63.7872 29.1369 63.8384C29.022 63.8945 28.9071 63.9457 28.7922 63.9969C28.6675 64.053 28.5403 64.1042 28.4108 64.1554C28.2836 64.2066 28.154 64.2554 28.0245 64.2992C27.0416 64.6528 25.9829 64.86 24.89 64.9063C24.7286 64.9137 24.5673 64.9137 24.4084 64.9137C24.2494 64.9137 24.0881 64.9137 23.9267 64.9063C22.8338 64.86 21.7727 64.6503 20.7923 64.2992C20.6602 64.2554 20.5331 64.2066 20.406 64.1554C20.1663 64.0627 19.9316 63.9579 19.6994 63.8482C19.648 63.8238 19.5942 63.797 19.5429 63.7702C19.4744 63.7385 19.4084 63.7019 19.3399 63.6678C19.2666 63.6288 19.1933 63.5873 19.1199 63.5483C19.0881 63.5288 19.0563 63.5142 19.027 63.4922C18.9683 63.4605 18.9096 63.4264 18.8534 63.3923C18.7752 63.3484 18.6994 63.2996 18.6236 63.2508C18.5918 63.2338 18.5649 63.2167 18.5356 63.1948C18.4549 63.1436 18.3717 63.0875 18.2911 63.0338C18.2617 63.0143 18.2348 62.9973 18.2079 62.9778C18.1321 62.9266 18.0588 62.8729 17.9854 62.8193C17.9439 62.79 17.9048 62.7608 17.8656 62.7291C17.7727 62.6608 17.6823 62.5901 17.5942 62.5169C17.5087 62.4487 17.4255 62.3804 17.3424 62.3073C17.1175 62.1171 16.8999 61.9147 16.6921 61.7026C16.6016 61.6124 16.5136 61.5222 16.428 61.4295C16.4207 61.4222 16.4182 61.4173 16.4109 61.41C16.318 61.3101 16.23 61.2101 16.1419 61.1053C16.0613 61.0102 15.9806 60.9126 15.8999 60.8127C15.8754 60.781 15.8485 60.7468 15.8216 60.7127C15.7703 60.6493 15.7214 60.5835 15.675 60.5177C15.6212 60.4494 15.5698 60.3762 15.5185 60.3055C15.5087 60.2909 15.4989 60.2763 15.4867 60.2616C15.4182 60.1666 15.3547 60.069 15.2911 59.9691C15.2862 59.9618 15.2838 59.9544 15.2789 59.9496C15.2104 59.8447 15.1444 59.7399 15.0808 59.6302C15.0808 59.6302 15.0808 59.6253 15.0759 59.6228C15.0148 59.5156 14.9537 59.4107 14.895 59.3034C14.8877 59.2937 14.8828 59.2815 14.8754 59.2717C14.7654 59.0694 14.6603 58.8646 14.5649 58.6549C14.5576 58.6354 14.5478 58.6208 14.5429 58.6061C14.4402 58.3843 14.3473 58.1599 14.2618 57.9308C14.2178 57.8162 14.1786 57.6991 14.1371 57.5845C14.1371 57.5772 14.1322 57.5723 14.1297 57.5675C14.0906 57.448 14.0515 57.3261 14.0148 57.2066C14.0148 57.1993 14.0099 57.1944 14.0075 57.1871C13.9757 57.0701 13.9415 56.9531 13.9121 56.836C13.8461 56.5873 13.7899 56.3362 13.7434 56.0802C13.719 55.951 13.6994 55.8242 13.6799 55.695C13.6603 55.5657 13.6432 55.4365 13.6285 55.3049C13.6236 55.2537 13.6187 55.2049 13.6138 55.1537C13.6138 55.1439 13.6138 55.1342 13.6138 55.122C13.6065 55.0659 13.6041 55.0098 13.5992 54.9538C13.5918 54.8977 13.5894 54.8416 13.587 54.7855C13.5821 54.7319 13.5796 54.6807 13.5796 54.6295C13.5723 54.51 13.5698 54.3857 13.5674 54.2613C13.5601 54.2052 13.5601 54.1492 13.5601 54.0931V30.46L15.5625 32.4544L20.1932 37.0723C20.5771 37.4551 20.7923 37.9744 20.7923 38.5157V54.0931C20.7923 55.0952 21.2006 56.0095 21.868 56.658H21.8754C22.5257 57.3066 23.4206 57.7016 24.4084 57.7016C28.2616 57.7016 31.9144 56.8433 35.1833 55.3073L35.1882 55.3049Z" fill="#310566"/>
<path d="M47.7278 39.6691C47.1801 41.4392 46.4344 43.1215 45.5175 44.6844C45.0652 45.4621 44.5762 46.2082 44.0383 46.9299C42.6007 48.878 40.8697 50.5994 38.9186 52.0354C38.1949 52.5645 37.4492 53.0619 36.6692 53.5008C36.2096 53.7738 35.745 54.0323 35.2609 54.2639H35.2536C35.1387 54.32 35.0262 54.3761 34.9113 54.4321L34.7988 54.4858C34.6032 54.5784 34.4052 54.6687 34.2071 54.754C34.1925 54.7589 34.1827 54.7662 34.168 54.7711C33.97 54.8588 33.7671 54.9442 33.5641 55.0246C33.5568 55.0271 33.547 55.0295 33.5397 55.0368C33.3416 55.1148 33.1411 55.1929 32.9407 55.2684C32.7573 55.3367 32.5764 55.4025 32.393 55.4659C32.3319 55.4854 32.2707 55.5049 32.2096 55.5269C32.0336 55.5878 31.8526 55.6439 31.6742 55.7C31.4419 55.7707 31.2072 55.839 30.97 55.9072C30.7793 55.9609 30.5862 56.0145 30.3906 56.0608C30.3906 56.0608 30.3881 56.0608 30.3857 56.0633C30.1754 56.1145 29.9651 56.1632 29.7524 56.212C29.7475 56.212 29.7378 56.2144 29.7329 56.2169C29.5642 56.2535 29.3955 56.29 29.2243 56.3242C29.1436 56.3412 29.0629 56.3583 28.9798 56.3705C28.8233 56.4022 28.662 56.429 28.5031 56.4534C28.3881 56.4729 28.2732 56.4924 28.1583 56.5095C28.0238 56.529 27.8918 56.5485 27.7573 56.568C27.6009 56.5875 27.4444 56.6094 27.2855 56.6241C27.2635 56.6289 27.239 56.6314 27.2146 56.6314C27.1241 56.6387 27.0361 56.6484 26.9456 56.6558H26.9383C26.7305 56.6801 26.5202 56.6996 26.3099 56.7167C26.1241 56.7313 25.9407 56.7435 25.7574 56.7533C25.5324 56.7655 25.3124 56.7752 25.0874 56.7801C24.8625 56.785 24.6351 56.7874 24.4102 56.7874C23.6914 56.7874 23.0214 56.5095 22.5202 56.0096L22.3882 55.8829C21.9457 55.3928 21.7036 54.7613 21.7036 54.0884V48.2977C22.5814 48.4879 23.4835 48.6049 24.4077 48.6537C24.706 48.6708 25.0068 48.6756 25.3148 48.6756C26.2366 48.6756 27.1363 48.6049 28.0238 48.4611C29.0116 48.3099 29.9749 48.0685 30.8991 47.7491C31.4932 47.5468 32.0825 47.3078 32.6424 47.0445C32.9309 46.908 33.212 46.7617 33.4859 46.6203C34.102 46.2838 34.6912 45.9156 35.256 45.5133C36.6863 44.5039 37.9479 43.2849 38.9919 41.9024C39.5396 41.1954 40.0213 40.4517 40.4394 39.6666H47.7205L47.7278 39.6691Z" fill="#310566"/>
<path d="M35.261 39.8666V44.1748C33.1999 45.8108 30.733 46.9592 28.0288 47.4395V42.0195C28.0288 41.4782 27.8137 40.9589 27.4298 40.5761L26.5179 39.6691L24.4127 37.5674L20.7966 33.9638L19.2857 32.457L14.7625 27.9464C13.9948 27.1808 13.5645 26.1446 13.5645 25.0621V20.1882C15.5302 18.184 18.0143 16.6894 20.7991 15.9189V22.9116C20.7991 23.4529 21.0143 23.9722 21.3981 24.355L24.4152 27.3637L29.5252 32.4595L34.0655 36.9871C34.8332 37.7527 35.2635 38.7889 35.2635 39.8715L35.261 39.8666Z" fill="#310566"/>
<path d="M27.1195 10.8156V14.5168C26.5278 14.4534 25.9313 14.4217 25.3225 14.4217C25.0877 14.4217 24.8555 14.4266 24.6208 14.4387V14.4217H24.2027V14.4607C23.0291 14.5338 21.8873 14.7216 20.7968 15.0263C19.5328 15.3628 18.3274 15.848 17.2027 16.4527C16.6942 16.7233 16.215 17.011 15.7382 17.3255C15.4668 17.5108 15.2003 17.7034 14.9363 17.9107C14.4522 18.2667 13.995 18.6568 13.5598 19.0664C12.2248 20.3172 11.0855 21.7752 10.2004 23.4014C9.87764 23.9939 9.59158 24.6108 9.33975 25.2447C9.2444 25.4861 9.14905 25.7348 9.06836 25.9835C8.46446 27.7316 8.13683 29.6041 8.13683 31.5522C8.13683 31.857 8.14417 32.1642 8.15884 32.4568C8.29575 35.0632 9.01213 37.5087 10.1833 39.6713C10.8605 40.927 11.6943 42.0948 12.6576 43.1408V53.7932C7.17352 50.7918 2.97796 45.7399 1.0929 39.6737C0.378969 37.3965 0 34.9778 0 32.4592C0 29.9406 0.378969 27.5219 1.0929 25.2471C1.64057 23.4868 2.37895 21.802 3.30559 20.2391C3.74568 19.4614 4.24445 18.7153 4.77501 17.9936C6.21265 16.0455 7.94124 14.3241 9.89476 12.8881C10.6209 12.3492 11.3666 11.8543 12.1466 11.413C12.6038 11.1326 13.0805 10.8839 13.5598 10.6523H13.5671C13.7187 10.5767 13.8703 10.5011 14.0219 10.4304C14.2052 10.3426 14.3886 10.2597 14.572 10.1793C14.6527 10.1403 14.7382 10.1037 14.8214 10.0671C14.7505 10.0964 14.682 10.1305 14.6111 10.1622C17.3641 8.95775 20.2736 8.27994 23.2907 8.14584V8.18241L24.254 8.12634C24.3543 8.11902 24.4594 8.11902 24.567 8.12634C25.2173 8.16291 25.831 8.43111 26.3005 8.89192C26.8188 9.3893 27.1171 10.0915 27.1171 10.8181L27.1195 10.8156Z" fill="#310566"/>
</svg>
