<svg width="164" height="47" viewBox="0 0 164 47" fill="none" xmlns="http://www.w3.org/2000/svg">
<path d="M54.4637 28.0851V26.9722H57.3651V28.3069C57.3651 29.697 57.9787 30.1981 58.9547 30.1981C59.9307 30.1981 60.5443 29.6971 60.5443 28.2515C60.5443 26.6375 59.9307 25.6087 57.9231 23.8572C55.3574 21.6046 54.5193 20.0194 54.5193 17.7935C54.5193 14.7339 56.109 12.9536 59.0927 12.9536C62.0763 12.9536 63.5548 14.7339 63.5548 17.8489V18.6559H60.6535V17.6538C60.6535 16.2637 60.0955 15.7339 59.1194 15.7339C58.1434 15.7339 57.5854 16.2616 57.5854 17.5984C57.5854 19.0173 58.2278 20.0461 60.2355 21.7976C62.8011 24.0502 63.6104 25.6087 63.6104 28.0276C63.6104 31.1981 61.9919 32.9784 58.9815 32.9784C55.971 32.9784 54.4637 31.1981 54.4637 28.0831V28.0851Z" fill="#48039B"/>
<path d="M65.1466 28.0851V17.8489C65.1466 14.7339 66.7918 12.9536 69.8043 12.9536C72.8168 12.9536 74.4621 14.7339 74.4621 17.8489V28.0851C74.4621 31.2001 72.8168 32.9804 69.8043 32.9804C66.7918 32.9804 65.1466 31.2001 65.1466 28.0851ZM71.394 28.2802V17.6559C71.394 16.2657 70.7804 15.736 69.8043 15.736C68.8283 15.736 68.2147 16.2637 68.2147 17.6559V28.2802C68.2147 29.6704 68.8283 30.2001 69.8043 30.2001C70.7804 30.2001 71.394 29.6724 71.394 28.2802Z" fill="#48039B"/>
<path d="M76.5275 13.235H84.6445V16.0153H79.5956V21.4383H83.5553V24.2186H79.5956V32.7012H76.5275V13.2329V13.235Z" fill="#48039B"/>
<path d="M88.7978 16.0157H85.5897V13.2354H95.072V16.0157H91.8639V32.7036H88.7958V16.0157H88.7978Z" fill="#48039B"/>
<path d="M100.819 28.1985V17.7405C100.819 14.7364 102.382 12.9561 105.336 12.9561C108.291 12.9561 109.854 14.7364 109.854 17.7405V19.798H106.953V17.5454C106.953 16.2661 106.339 15.7384 105.419 15.7384C104.498 15.7384 103.885 16.2661 103.885 17.5454V28.4202C103.885 29.6995 104.498 30.2005 105.419 30.2005C106.339 30.2005 106.953 29.6995 106.953 28.4202V25.4448H109.854V28.1985C109.854 31.2026 108.291 32.9829 105.336 32.9829C102.382 32.9829 100.819 31.2026 100.819 28.1985Z" fill="#48039B"/>
<path d="M114.067 13.2354H118.222L121.401 32.7036H118.333L117.775 28.8371V28.8925H114.289L113.731 32.7036H110.885L114.065 13.2354H114.067ZM117.413 26.2519L116.046 16.6296H115.99L114.652 26.2519H117.413Z" fill="#48039B"/>
<path d="M122.631 28.1985V17.7405C122.631 14.7364 124.194 12.9561 127.149 12.9561C130.104 12.9561 131.667 14.7364 131.667 17.7405V19.798H128.765V17.5454C128.765 16.2661 128.152 15.7384 127.231 15.7384C126.311 15.7384 125.697 16.2661 125.697 17.5454V28.4202C125.697 29.6995 126.311 30.2005 127.231 30.2005C128.152 30.2005 128.765 29.6995 128.765 28.4202V25.4448H131.667V28.1985C131.667 31.2026 130.104 32.9829 127.149 32.9829C124.194 32.9829 122.631 31.2026 122.631 28.1985Z" fill="#48039B"/>
<path d="M135.906 16.0157H132.698V13.2354H142.18V16.0157H138.972V32.7036H135.904V16.0157H135.906Z" fill="#48039B"/>
<path d="M143.55 28.0852V13.2329H146.618V28.3069C146.618 29.6971 147.202 30.1981 148.181 30.1981C149.159 30.1981 149.741 29.6971 149.741 28.3069V13.2329H152.698V28.0852C152.698 31.2002 151.135 32.9805 148.125 32.9805C145.114 32.9805 143.552 31.2002 143.552 28.0852H143.55Z" fill="#48039B"/>
<path d="M154.343 28.0851V26.9722H157.245V28.3069C157.245 29.697 157.858 30.1981 158.834 30.1981C159.81 30.1981 160.424 29.6971 160.424 28.2515C160.424 26.6375 159.81 25.6087 157.803 23.8572C155.237 21.6046 154.399 20.0194 154.399 17.7935C154.399 14.7339 155.988 12.9536 158.972 12.9536C161.956 12.9536 163.434 14.7339 163.434 17.8489V18.6559H160.533V17.6538C160.533 16.2637 159.975 15.7339 158.999 15.7339C158.023 15.7339 157.465 16.2616 157.465 17.5984C157.465 19.0173 158.107 20.0461 160.115 21.7976C162.681 24.0502 163.49 25.6087 163.49 28.0276C163.49 31.1981 161.871 32.9784 158.861 32.9784C155.851 32.9784 154.343 31.1981 154.343 28.0831V28.0851Z" fill="#48039B"/>
<rect x="0.490234" width="45.3378" height="46.4173" rx="9.71524" fill="url(#paint0_linear_858_1186)"/>
<path d="M35.0317 20.1158H31.8298C31.8103 20.0685 31.7909 20.0199 31.7702 19.9726C31.7604 19.9496 31.7507 19.9265 31.741 19.9022C31.7312 19.878 31.7203 19.8537 31.7094 19.8295C31.6814 19.7639 31.651 19.7009 31.6205 19.6366C31.6157 19.6232 31.6096 19.6111 31.6035 19.599C31.5999 19.5917 31.5974 19.5844 31.5938 19.5783C31.5901 19.5686 31.584 19.5577 31.5792 19.5492C31.5573 19.5031 31.5342 19.457 31.5111 19.4109C31.5062 19.4 31.5013 19.3891 31.4952 19.3782C31.4879 19.3636 31.4794 19.349 31.4721 19.3345C31.4721 19.3345 31.4721 19.3308 31.4697 19.3308C31.4673 19.326 31.4648 19.3211 31.4612 19.3151C31.4612 19.3127 31.4587 19.3114 31.4575 19.3102C31.4295 19.252 31.3979 19.195 31.3663 19.138C31.3639 19.1343 31.3626 19.1307 31.3602 19.1282C31.3164 19.0482 31.2702 18.9693 31.2239 18.8917C31.2203 18.8856 31.2154 18.8783 31.213 18.8723C31.1692 18.8007 31.1254 18.7303 31.0804 18.6612C31.0561 18.6224 31.0317 18.5848 31.0062 18.5471C30.9806 18.5083 30.9551 18.4719 30.9295 18.4343C30.9064 18.4004 30.8833 18.3664 30.8578 18.3324C30.8347 18.2984 30.8103 18.2645 30.786 18.2317C30.7775 18.2208 30.7702 18.2099 30.7617 18.199C30.7118 18.131 30.6595 18.0631 30.6072 17.9964C30.6047 17.9939 30.6035 17.9915 30.6011 17.9879C30.5755 17.9551 30.5488 17.9224 30.5232 17.892C30.4989 17.8617 30.4746 17.8326 30.449 17.8023C30.4356 17.7853 30.421 17.7683 30.4064 17.7513C30.3821 17.7222 30.3578 17.6931 30.3334 17.6664C30.3091 17.6385 30.2848 17.6106 30.2592 17.5827C30.1984 17.5147 30.1376 17.4492 30.0755 17.3837C30.0597 17.3679 30.0439 17.351 30.0293 17.3352C30.0135 17.3194 29.9977 17.3012 29.9819 17.2867C29.9502 17.2539 29.9186 17.2212 29.8857 17.1908C29.831 17.1362 29.7738 17.0816 29.7166 17.0295C29.6996 17.0137 29.6826 16.9967 29.6643 16.9809C29.6351 16.953 29.6059 16.9276 29.5767 16.9021C29.5475 16.8754 29.5171 16.8487 29.4867 16.8245C29.4527 16.7941 29.4186 16.765 29.3845 16.7359C29.3505 16.7068 29.3152 16.6777 29.2799 16.6498V13.0903C29.3201 13.1122 29.359 13.134 29.3991 13.1558C29.4502 13.1837 29.5001 13.2116 29.55 13.242C29.6047 13.2723 29.6595 13.3051 29.7142 13.3378C29.7179 13.3402 29.7215 13.3415 29.7252 13.3451C29.7288 13.3475 29.7349 13.3487 29.7385 13.3536C29.7665 13.3694 29.7945 13.3876 29.8225 13.4045C29.8334 13.4106 29.8444 13.4179 29.8566 13.4264C29.8784 13.4409 29.9028 13.4543 29.9247 13.4688C29.9527 13.4846 29.9794 13.5028 30.0062 13.521C30.0098 13.521 30.0147 13.5246 30.0171 13.5283C30.1254 13.5962 30.2312 13.6678 30.3359 13.7406C30.3772 13.7685 30.4186 13.7976 30.4587 13.8255C30.4612 13.8255 30.4636 13.8291 30.466 13.8304C30.5244 13.8704 30.5816 13.9129 30.6388 13.9565C30.6716 13.9796 30.7045 14.0038 30.7373 14.0293C30.7775 14.0572 30.8152 14.0876 30.8541 14.1179C30.8578 14.1215 30.8614 14.1227 30.8651 14.1276C30.893 14.1494 30.921 14.17 30.949 14.1931C31.005 14.2368 31.0609 14.2817 31.1169 14.3278C31.1449 14.3496 31.1716 14.3714 31.1984 14.3945C31.3237 14.4976 31.4454 14.6031 31.567 14.7123C31.5901 14.733 31.6132 14.7524 31.6351 14.7742C31.685 14.8191 31.7337 14.864 31.7823 14.9113C31.8115 14.9392 31.842 14.9659 31.8699 14.995C31.9113 15.0338 31.9527 15.0726 31.9928 15.1151C32.0196 15.1406 32.0451 15.1673 32.0707 15.1927L32.0828 15.2049C32.1181 15.2401 32.1534 15.2765 32.1862 15.3128C32.196 15.3213 32.2045 15.3298 32.2106 15.3383C32.2434 15.3711 32.275 15.4038 32.3055 15.4378C32.5585 15.7071 32.8006 15.9886 33.0269 16.281C33.0549 16.3149 33.0804 16.3513 33.1072 16.3853C33.1522 16.4423 33.196 16.5005 33.2385 16.5612C33.286 16.6267 33.3334 16.691 33.3797 16.7565C33.4028 16.7905 33.4271 16.8257 33.4514 16.8596C33.4928 16.9191 33.5342 16.9809 33.5731 17.0416C33.5865 17.061 33.5999 17.0816 33.612 17.1011C33.6948 17.226 33.775 17.3534 33.8517 17.4832C33.8918 17.5487 33.9295 17.6142 33.9673 17.6797C34.0074 17.7477 34.0451 17.8156 34.0828 17.886C34.1157 17.943 34.1461 18.0012 34.1765 18.0582C34.2227 18.1456 34.2677 18.2329 34.3103 18.3227C34.3359 18.3712 34.359 18.4185 34.3821 18.4683C34.4989 18.7085 34.6072 18.9548 34.7069 19.2047C34.7191 19.2326 34.7288 19.2617 34.741 19.2896C34.7531 19.3175 34.7629 19.3454 34.7738 19.3733C34.7969 19.434 34.8201 19.4946 34.8432 19.5565C34.9113 19.7397 34.9746 19.9265 35.033 20.1158H35.0317Z" fill="white"/>
<path d="M28.8297 12.9377V24.7018L27.8297 23.7046L25.5292 21.4105C25.3382 21.22 25.2311 20.9616 25.2311 20.6923V12.9377C25.2311 12.4355 25.0219 11.9769 24.6861 11.6542C24.3856 11.3594 23.9818 11.1726 23.5353 11.1471C23.5012 11.1447 23.4659 11.1435 23.4319 11.1435C23.3978 11.1435 23.3613 11.1435 23.3272 11.1471V11.1447C21.4477 11.1592 19.6667 11.5851 18.0693 12.336C18.298 10.2567 19.7129 8.53639 21.6326 7.86187C22.1204 7.68596 22.6484 7.58284 23.1922 7.55979C23.2725 7.55615 23.3516 7.55615 23.4319 7.55615C23.5122 7.55615 23.5912 7.55615 23.6715 7.55979C24.2153 7.58284 24.7421 7.68717 25.2311 7.86187C27.1484 8.53639 28.5645 10.2567 28.7932 12.3348C28.8127 12.5059 28.8236 12.6793 28.826 12.854C28.8297 12.8819 28.8297 12.9098 28.8297 12.9377Z" fill="white"/>
<path d="M28.7929 35.0745C28.7869 35.1279 28.7808 35.1825 28.7723 35.2359C28.7698 35.2565 28.7674 35.2759 28.7625 35.2953C28.7625 35.2953 28.7625 35.2978 28.7625 35.299C28.754 35.3524 28.7455 35.407 28.7345 35.4603C28.7236 35.521 28.7114 35.5816 28.698 35.6435C28.6822 35.7187 28.664 35.7952 28.6433 35.8692C28.6311 35.9165 28.6178 35.9638 28.6032 36.0111C28.6007 36.0172 28.5995 36.0232 28.5971 36.0293C28.5618 36.1482 28.5217 36.2659 28.4779 36.3811C28.456 36.4381 28.4341 36.4939 28.4122 36.5498C28.4122 36.5534 28.4085 36.5558 28.4085 36.5595C28.3903 36.6019 28.372 36.6432 28.3538 36.6844C28.299 36.8069 28.2382 36.9295 28.1725 37.0484C28.1628 37.0666 28.153 37.0835 28.1445 37.1017C28.1214 37.143 28.0983 37.1842 28.0727 37.2243C28.0034 37.3395 27.9304 37.4536 27.8526 37.5627C27.827 37.5979 27.8015 37.6343 27.7747 37.6683C27.7516 37.7023 27.7272 37.7338 27.7017 37.7653C27.6895 37.7823 27.6762 37.7993 27.6628 37.8151C27.6238 37.8648 27.5837 37.9121 27.5423 37.9607C27.4998 38.0128 27.4547 38.0626 27.4085 38.1123C27.3635 38.1608 27.3185 38.2081 27.271 38.2555C27.2285 38.3003 27.1835 38.344 27.1384 38.3853C27.0922 38.4277 27.0472 38.4702 26.9998 38.5114C26.9681 38.5393 26.9353 38.5672 26.9036 38.5939C26.8343 38.6534 26.7637 38.7092 26.6908 38.7638C26.6567 38.7917 26.6214 38.8172 26.5861 38.8414C26.574 38.8511 26.5618 38.8596 26.5496 38.8681C26.5119 38.896 26.473 38.9215 26.4341 38.947C26.4158 38.9603 26.3976 38.9724 26.3781 38.9834C26.3465 39.0052 26.3148 39.0246 26.2832 39.044C26.2577 39.0598 26.2321 39.0768 26.2053 39.0913C26.1774 39.1083 26.147 39.1253 26.1178 39.1435C26.0946 39.1568 26.0703 39.1714 26.046 39.1835C26.0107 39.2042 25.9742 39.2236 25.9389 39.2418C25.8866 39.2697 25.8355 39.2951 25.782 39.3206C25.7248 39.3485 25.6676 39.374 25.6105 39.3995C25.5484 39.4274 25.4852 39.4529 25.4207 39.4783C25.3574 39.5038 25.2929 39.5281 25.2285 39.5499C24.7394 39.7258 24.2126 39.8289 23.6688 39.852C23.5886 39.8556 23.5083 39.8556 23.4292 39.8556C23.3501 39.8556 23.2698 39.8556 23.1895 39.852C22.6457 39.8289 22.1178 39.7246 21.6299 39.5499C21.5642 39.5281 21.501 39.5038 21.4377 39.4783C21.3185 39.4322 21.2017 39.3801 21.0861 39.3255C21.0606 39.3133 21.0338 39.3 21.0083 39.2867C20.9742 39.2709 20.9414 39.2527 20.9073 39.2357C20.8708 39.2163 20.8343 39.1957 20.7978 39.1763C20.782 39.1665 20.7662 39.1593 20.7516 39.1484C20.7224 39.1326 20.6932 39.1156 20.6652 39.0986C20.6263 39.0768 20.5886 39.0525 20.5508 39.0282C20.535 39.0198 20.5216 39.0113 20.507 39.0003C20.4669 38.9749 20.4255 38.947 20.3854 38.9203C20.3708 38.9106 20.3574 38.9021 20.344 38.8924C20.3063 38.8669 20.2698 38.8402 20.2333 38.8135C20.2126 38.799 20.1932 38.7844 20.1737 38.7686C20.1275 38.7347 20.0825 38.6995 20.0387 38.6631C19.9961 38.6291 19.9547 38.5951 19.9134 38.5588C19.8014 38.4641 19.6932 38.3634 19.5898 38.2579C19.5448 38.213 19.501 38.1681 19.4584 38.122C19.4547 38.1184 19.4535 38.1159 19.4499 38.1123C19.4036 38.0626 19.3598 38.0128 19.316 37.9607C19.2759 37.9134 19.2358 37.8648 19.1956 37.8151C19.1834 37.7993 19.1701 37.7823 19.1567 37.7653C19.1311 37.7338 19.1068 37.701 19.0837 37.6683C19.0569 37.6343 19.0314 37.5979 19.0058 37.5627C19.001 37.5555 18.9961 37.5482 18.99 37.5409C18.9559 37.4936 18.9243 37.4451 18.8927 37.3953C18.8903 37.3917 18.889 37.388 18.8866 37.3856C18.8525 37.3335 18.8197 37.2813 18.7881 37.2267C18.7881 37.2267 18.7881 37.2243 18.7856 37.2231C18.7552 37.1697 18.7248 37.1175 18.6956 37.0641C18.692 37.0593 18.6895 37.0532 18.6859 37.0484C18.6311 36.9477 18.5788 36.8458 18.5314 36.7414C18.5277 36.7317 18.5229 36.7244 18.5204 36.7172C18.4693 36.6068 18.4231 36.4952 18.3805 36.3811C18.3586 36.3241 18.3392 36.2659 18.3185 36.2089C18.3185 36.2052 18.316 36.2028 18.3148 36.2004C18.2954 36.1409 18.2759 36.0803 18.2576 36.0208C18.2576 36.0172 18.2552 36.0147 18.254 36.0111C18.2382 35.9529 18.2212 35.8946 18.2066 35.8364C18.1737 35.7127 18.1457 35.5877 18.1226 35.4603C18.1104 35.396 18.1007 35.3329 18.091 35.2687C18.0813 35.2044 18.0727 35.1401 18.0654 35.0745C18.063 35.0491 18.0606 35.0248 18.0581 34.9993C18.0581 34.9945 18.0581 34.9896 18.0581 34.9836C18.0545 34.9557 18.0533 34.9278 18.0508 34.8998C18.0472 34.8719 18.046 34.844 18.0448 34.8161C18.0423 34.7895 18.0411 34.764 18.0411 34.7385C18.0375 34.6791 18.0362 34.6172 18.035 34.5553C18.0314 34.5274 18.0314 34.4995 18.0314 34.4716V22.7124L19.0277 23.7048L21.3319 26.0025C21.5229 26.193 21.6299 26.4514 21.6299 26.7207V34.4716C21.6299 34.9702 21.8331 35.4251 22.1652 35.7479H22.1688C22.4924 36.0706 22.9377 36.2671 23.4292 36.2671C25.3465 36.2671 27.164 35.8401 28.7905 35.0758L28.7929 35.0745Z" fill="white"/>
<path d="M35.033 27.2947C34.7605 28.1754 34.3895 29.0125 33.9333 29.7901C33.7082 30.1771 33.4649 30.5484 33.1973 30.9075C32.4819 31.8768 31.6206 32.7333 30.6498 33.4478C30.2897 33.7111 29.9187 33.9586 29.5306 34.177C29.3019 34.3128 29.0707 34.4414 28.8299 34.5567H28.8262C28.769 34.5846 28.7131 34.6125 28.6559 34.6404L28.5999 34.6671C28.5026 34.7132 28.4041 34.7581 28.3055 34.8005C28.2982 34.8029 28.2934 34.8066 28.2861 34.809C28.1875 34.8527 28.0865 34.8951 27.9856 34.9352C27.9819 34.9364 27.9771 34.9376 27.9734 34.9412C27.8749 34.9801 27.7751 35.0189 27.6754 35.0565C27.5841 35.0905 27.4941 35.1232 27.4028 35.1548C27.3724 35.1645 27.342 35.1742 27.3116 35.1851C27.224 35.2154 27.134 35.2433 27.0452 35.2712C26.9296 35.3064 26.8128 35.3404 26.6948 35.3743C26.5999 35.401 26.5038 35.4277 26.4065 35.4508C26.4065 35.4508 26.4053 35.4508 26.4041 35.452C26.2994 35.4775 26.1948 35.5017 26.089 35.526C26.0865 35.526 26.0817 35.5272 26.0792 35.5284C25.9953 35.5466 25.9114 35.5648 25.8262 35.5818C25.7861 35.5903 25.7459 35.5988 25.7045 35.6048C25.6267 35.6206 25.5464 35.634 25.4673 35.6461C25.4101 35.6558 25.353 35.6655 25.2958 35.674C25.2289 35.6837 25.1632 35.6934 25.0963 35.7031C25.0184 35.7128 24.9406 35.7237 24.8615 35.731C24.8505 35.7334 24.8384 35.7347 24.8262 35.7347C24.7812 35.7383 24.7374 35.7431 24.6924 35.7468H24.6887C24.5853 35.7589 24.4807 35.7686 24.3761 35.7771C24.2836 35.7844 24.1924 35.7905 24.1011 35.7953C23.9892 35.8014 23.8797 35.8062 23.7678 35.8087C23.6559 35.8111 23.5427 35.8123 23.4308 35.8123C23.0732 35.8123 22.7398 35.674 22.4904 35.4253L22.4247 35.3622C22.2045 35.1184 22.0841 34.8042 22.0841 34.4693V31.5881C22.5208 31.6827 22.9698 31.7409 23.4296 31.7652C23.578 31.7737 23.7277 31.7761 23.8809 31.7761C24.3396 31.7761 24.7873 31.7409 25.2289 31.6693C25.7204 31.5941 26.1997 31.474 26.6595 31.3151C26.9552 31.2144 27.2483 31.0955 27.5269 30.9645C27.6705 30.8966 27.8104 30.8238 27.9466 30.7534C28.2532 30.586 28.5464 30.4028 28.8274 30.2026C29.5391 29.7004 30.1668 29.0938 30.6863 28.4059C30.9588 28.0541 31.1985 27.6841 31.4065 27.2935H35.0294L35.033 27.2947Z" fill="white"/>
<path d="M28.8297 27.3927V29.5364C27.8041 30.3504 26.5766 30.9218 25.2311 31.1608V28.464C25.2311 28.1947 25.1241 27.9362 24.9331 27.7458L24.4793 27.2945L23.4319 26.2487L21.6326 24.4557L20.8808 23.7059L18.6302 21.4616C18.2482 21.0807 18.0341 20.5651 18.0341 20.0264V17.6013C19.0122 16.6041 20.2482 15.8604 21.6338 15.4771V18.9564C21.6338 19.2257 21.7409 19.4841 21.9319 19.6746L23.4331 21.1716L25.9757 23.7072L28.2348 25.96C28.6168 26.3409 28.8309 26.8565 28.8309 27.3952L28.8297 27.3927Z" fill="white"/>
<path d="M24.7786 12.938V14.7796C24.4842 14.7481 24.1874 14.7323 23.8844 14.7323C23.7676 14.7323 23.6521 14.7347 23.5353 14.7408V14.7323H23.3273V14.7517C22.7433 14.7881 22.1752 14.8815 21.6326 15.0332C21.0037 15.2006 20.4039 15.442 19.8443 15.7429C19.5912 15.8775 19.3528 16.0207 19.1156 16.1772C18.9805 16.2694 18.8479 16.3652 18.7165 16.4683C18.4757 16.6454 18.2482 16.8396 18.0316 17.0434C17.3674 17.6657 16.8005 18.3912 16.3601 19.2004C16.1995 19.4952 16.0572 19.8021 15.9319 20.1175C15.8844 20.2376 15.837 20.3614 15.7968 20.4851C15.4964 21.355 15.3333 22.2867 15.3333 23.256C15.3333 23.4076 15.337 23.5605 15.3443 23.7061C15.4124 25.0029 15.7689 26.2197 16.3516 27.2958C16.6886 27.9206 17.1034 28.5017 17.5827 29.0221V34.3225C14.854 32.8291 12.7664 30.3154 11.8285 27.297C11.4732 26.1639 11.2847 24.9605 11.2847 23.7073C11.2847 22.4541 11.4732 21.2506 11.8285 20.1187C12.101 19.2428 12.4684 18.4045 12.9294 17.6269C13.1484 17.2399 13.3966 16.8687 13.6606 16.5096C14.3759 15.5403 15.236 14.6838 16.208 13.9692C16.5693 13.7011 16.9404 13.4548 17.3285 13.2352C17.556 13.0957 17.7932 12.972 18.0316 12.8567H18.0353C18.1107 12.8191 18.1861 12.7815 18.2616 12.7463C18.3528 12.7027 18.444 12.6614 18.5353 12.6214C18.5754 12.602 18.618 12.5838 18.6594 12.5656C18.6241 12.5801 18.59 12.5971 18.5547 12.6129C19.9246 12.0136 21.3723 11.6763 22.8735 11.6096V11.6278L23.3528 11.5999C23.4027 11.5963 23.455 11.5963 23.5085 11.5999C23.8321 11.6181 24.1375 11.7515 24.3711 11.9808C24.629 12.2283 24.7774 12.5777 24.7774 12.9392L24.7786 12.938Z" fill="white"/>
<defs>
<linearGradient id="paint0_linear_858_1186" x1="3.18891" y1="3.77815" x2="42.0499" y2="43.1789" gradientUnits="userSpaceOnUse">
<stop stop-color="#310566"/>
<stop offset="1" stop-color="#5402B8"/>
</linearGradient>
</defs>
</svg>
