<svg width="347" height="303" viewBox="0 0 347 303" fill="none" xmlns="http://www.w3.org/2000/svg">
<path d="M2.91478 45.5697C1.33067 35.3698 8.68015 26.4243 19.0135 25.9748L290.129 14.1838C299.776 13.7643 308.475 20.9429 309.869 30.473L342.926 256.555C344.465 267.079 336.531 276.11 325.836 276.008L54.5414 273.416C45.2913 273.328 37.2055 266.364 35.7931 257.269L2.91478 45.5697Z" fill="url(#paint0_linear_947_1280)"/>
<rect x="37.5215" y="13.9336" width="308.978" height="263.446" rx="17.5" fill="white" stroke="#E3DBD8"/>
<rect x="47" y="22" width="290" height="247" rx="11" stroke="url(#paint1_linear_947_1280)" stroke-width="2"/>
<g clip-path="url(#clip0_947_1280)">
<path d="M191.889 105.124C191.889 105.094 191.889 105.064 191.928 105.039L191.889 105.124ZM142.863 125.477C142.863 122.153 142.863 118.817 142.863 115.47C142.863 118.794 142.863 122.129 142.863 125.477C142.863 128.545 142.863 131.613 142.863 134.681C142.86 131.616 142.86 128.548 142.863 125.477Z" fill="#1F2CA1"/>
<path d="M201.755 167.968C199.282 159.392 191.582 153.109 182.695 152.805C175.138 152.546 167.566 152.691 159.999 152.735C157.269 152.735 155.81 154.326 155.726 157.128C155.662 159.033 155.701 160.937 155.726 162.847C155.726 170.276 155.726 170.246 148.253 169.927C146.933 169.872 146.591 169.678 146.982 168.227C149.143 160.249 146.3 153.922 139.069 150.277C136.784 154.705 133.629 155.951 130.296 153.768C129 152.915 128.317 151.639 127.763 150.277C122.205 152.915 119.079 157.313 119.025 163.51C118.98 169.124 121.408 173.522 126.492 176.195L127.313 176.608L127.882 176.833C129.944 176.105 131.918 177.152 133.965 177.142C154.869 177.059 175.776 177.049 196.686 177.112C197.675 177.112 198.877 176.613 199.594 177.855L200.469 177.511C201.572 175.347 201.176 172.844 201.988 170.61C202.487 169.668 202.027 168.805 201.755 167.968ZM133.431 169.917C132.61 169.927 131.795 169.773 131.033 169.465C130.271 169.156 129.577 168.699 128.991 168.12C128.404 167.54 127.937 166.85 127.616 166.088C127.295 165.326 127.127 164.507 127.121 163.68C127.106 162.006 127.746 160.395 128.903 159.194C130.059 157.994 131.638 157.302 133.298 157.268C134.956 157.285 136.544 157.948 137.729 159.117C138.915 160.287 139.605 161.874 139.658 163.545C139.653 165.217 138.998 166.821 137.834 168.012C136.67 169.203 135.09 169.887 133.431 169.917ZM191.72 169.972C183.08 169.872 174.411 169.907 165.79 169.972C164.341 169.972 163.684 169.638 163.812 168.042C163.919 166.216 163.919 164.384 163.812 162.558C163.748 161.242 164.247 160.813 165.518 160.843C168.318 160.907 171.117 160.843 173.926 160.843C176.478 160.843 179.03 160.763 181.577 160.843C186.567 161.032 190.355 163.336 192.912 167.668C193.723 169.124 194.065 170.002 191.72 169.972Z" fill="#1F2CA1"/>
<path d="M265.014 158.684C263.725 155.135 261.123 152.228 257.753 150.572C254.384 148.916 250.509 148.641 246.943 149.804C243.371 150.958 240.394 153.484 238.657 156.835C236.92 160.187 236.561 164.093 237.66 167.708C238.194 169.543 237.957 169.977 236.072 169.932C231.468 169.827 226.854 169.862 222.225 169.932C220.622 169.932 219.692 169.932 220.632 167.828C221.72 165.39 220.741 163.141 218.594 162.209C216.448 161.276 214.326 162.269 213.154 164.702C212.511 166.043 211.948 167.424 211.344 168.79C207.971 176.444 204.579 184.087 201.225 191.751C200.083 194.363 200.597 196.428 202.566 197.639C204.885 199.06 207.353 198.068 208.693 195.091C211.24 189.432 213.748 183.753 216.275 178.079C216.433 176.848 217.378 177.082 218.159 177.082H250.598C251.315 177.082 252.141 176.902 252.348 177.959C253.747 178.039 255.145 177.787 256.429 177.222C259.994 175.895 262.895 173.204 264.503 169.733C266.111 166.261 266.294 162.291 265.014 158.684ZM251.483 169.922C250.24 169.94 249.019 169.585 247.976 168.903C246.933 168.22 246.114 167.241 245.623 166.089C245.132 164.938 244.992 163.665 245.219 162.432C245.447 161.2 246.032 160.063 246.901 159.166C247.769 158.269 248.883 157.653 250.1 157.394C251.316 157.136 252.582 157.247 253.736 157.715C254.89 158.182 255.88 158.984 256.581 160.019C257.282 161.055 257.663 162.276 257.675 163.53C257.674 165.199 257.026 166.802 255.869 167.996C254.712 169.191 253.138 169.882 251.483 169.922Z" fill="#1F2CA1"/>
<path d="M262.685 141.92C262.685 143.87 262.295 145.555 260.504 146.602C257.68 148.247 254.357 146.278 254.228 142.808C254.144 140.509 254.149 138.206 254.139 135.902C254.139 135.134 254.139 134.371 254.139 133.603C258.185 130.113 258.195 127.391 254.179 123.302C254.179 120.236 254.273 117.17 254.233 114.108C254.208 112.268 253.813 110.429 251.543 110.344C249.07 110.254 248.65 112.204 248.6 114.113C248.526 117.175 248.6 120.241 248.645 123.307C244.807 127.162 244.812 130.198 248.645 133.643C248.645 136.545 248.645 139.452 248.59 142.354C248.536 145.256 246.884 147.14 244.381 147.135C241.879 147.13 240.178 145.271 240.168 142.329C240.133 133.12 240.039 123.906 240.197 114.697C240.351 105.976 246.449 101.429 254.901 103.488C258.793 104.435 261.206 106.978 262.136 110.842C262.466 112.298 262.632 113.787 262.631 115.28C262.69 124.16 262.651 133.04 262.685 141.92Z" fill="#1F2CA1"/>
<path d="M187.012 112.808L186.849 111.811C184.871 110.09 184.223 107.592 183.15 105.329C179.218 102.337 172.764 102.367 168.847 105.404C168.768 105.827 168.639 106.191 168.08 106.027L168.031 106.077C167.61 108.071 166.968 109.921 165.36 111.287L165.256 111.746C166.166 112.419 165.825 113.416 165.83 114.279C165.83 121.01 165.939 127.741 165.83 134.462C165.736 139.448 166.26 144.045 171.191 146.757C171.28 146.807 171.255 147.071 171.28 147.256C171.404 147.407 171.567 147.52 171.752 147.581C171.937 147.642 172.135 147.649 172.324 147.6C173.699 146.757 175.207 147.246 176.641 147.221C181.587 147.146 184.099 145.022 185.726 140.301C186.567 137.867 186.621 135.509 186.626 133.066C186.626 127.197 186.626 121.329 186.626 115.46C186.636 114.548 186.325 113.596 187.012 112.808ZM178.783 136.97C178.783 138.575 178.629 140.221 176.725 140.754C174.925 141.253 174.035 140.036 173.263 138.685C172.215 138.535 172.304 137.733 172.304 136.98C172.304 129.591 172.304 122.201 172.304 114.812C172.304 114.129 172.304 113.446 173.169 113.276C173.703 111.646 174.322 110.011 176.473 110.365C178.624 110.719 178.783 112.474 178.788 114.179C178.784 121.774 178.783 129.371 178.783 136.97Z" fill="#1F2CA1"/>
<path d="M235.242 142.469C233.313 146.897 228.259 148.951 222.383 147.754C217.903 146.827 215.019 143.267 214.925 138.5C214.862 137.455 215.189 136.422 215.843 135.608C216.496 134.793 217.429 134.254 218.456 134.098C220.603 133.809 222.413 135.135 222.977 137.414C223.13 138.057 223.175 138.73 223.367 139.363C223.483 139.9 223.795 140.373 224.242 140.688C224.688 141.003 225.236 141.137 225.776 141.063C226.277 141.033 226.751 140.822 227.109 140.467C227.467 140.112 227.686 139.638 227.725 139.134C228.259 135.983 228.091 132.976 225.568 130.618C223.59 128.758 221.473 127.013 219.535 125.103C215.247 120.875 214.094 113.216 216.849 107.817C218.714 104.177 221.938 103.1 225.712 103.085C231.805 103.085 235.469 106.426 235.603 112.13C235.652 114.543 234.287 116.273 232.141 116.517C229.995 116.762 228.274 115.41 227.779 113.027C227.695 112.623 227.695 112.199 227.606 111.795C227.393 110.798 226.859 110.12 225.781 110.1C224.703 110.08 224.114 110.783 223.936 111.761C223.442 114.313 223.575 116.747 225.682 118.641C227.591 120.346 229.639 121.927 231.473 123.687C233.907 126.069 235.57 129.138 236.243 132.49C236.915 135.842 236.566 139.321 235.242 142.469Z" fill="#1F2CA1"/>
<path d="M209.633 123.851L209.974 123.517C210.596 123 211.09 122.344 211.417 121.602C211.744 120.86 211.895 120.051 211.859 119.239C212.132 118.613 212.216 117.919 212.101 117.245C212.383 115.956 212.383 114.62 212.101 113.331L211.953 112.194C211.794 108.145 209.594 105.214 205.84 104.296C201.977 103.344 198.031 103.743 194.119 103.837C193.696 103.822 193.276 103.919 192.902 104.119C192.528 104.318 192.213 104.613 191.987 104.974C191.969 105.001 191.955 105.029 191.943 105.059C191.943 105.059 191.943 105.114 191.903 105.144L196.29 104.979L191.898 105.149C190.568 105.981 190.573 107.343 190.573 108.669C190.573 119.97 190.573 131.257 190.573 142.529C190.573 145.47 192.234 147.36 194.707 147.395C197.18 147.43 198.97 145.525 198.99 142.653C199.015 138.006 198.956 133.359 198.936 128.693V128.653C202.358 128.219 203.258 128.932 203.506 132.292C203.605 133.599 203.664 134.905 203.738 136.212C203.491 138.688 203.535 141.185 203.872 143.651C204.327 146.203 205.85 147.525 208.125 147.355C209.163 147.299 210.14 146.838 210.849 146.071C211.558 145.304 211.945 144.29 211.928 143.242C211.974 139.359 211.925 135.475 211.78 131.589C211.705 129.485 211.211 127.371 209.411 126.105C207.917 125.013 209.163 124.549 209.633 123.851ZM203.516 119.832C202.863 121.513 201.488 121.971 199.925 121.782C198.194 121.573 199.045 120.097 198.99 119.194C198.867 117.13 198.867 115.061 198.99 112.997C199.04 112.084 198.209 110.618 199.91 110.384C201.611 110.15 203.105 110.633 203.629 112.473C203.858 113.6 203.997 114.744 204.045 115.894C203.901 117.235 204.005 118.556 203.511 119.832H203.516Z" fill="#1F2CA1"/>
<path d="M161.389 124.739C161.402 125.705 161.04 126.638 160.381 127.339C159.721 128.04 158.815 128.452 157.857 128.489C156.376 128.611 154.888 128.611 153.406 128.489C151.735 128.354 151.092 128.853 151.151 130.668C151.29 134.562 151.22 138.466 151.191 142.36C151.161 145.506 149.509 147.346 146.908 147.301C144.435 147.236 142.877 145.391 142.862 142.375C142.862 139.802 142.862 137.229 142.862 134.656C142.862 131.588 142.862 128.52 142.862 125.452C142.862 122.128 142.862 118.793 142.862 115.445C142.862 113.222 142.862 110.999 142.862 108.779C142.862 105.289 144.346 103.793 147.808 103.748C151.102 103.718 154.396 103.698 157.699 103.748C160.33 103.788 161.962 105.334 161.898 107.587C161.834 109.721 160.222 111.117 157.719 111.202C157.556 111.202 157.388 111.202 157.224 111.202C155.291 111.412 152.279 110.285 151.626 111.661C150.449 114.154 151.235 117.34 151.28 120.232C151.28 121.174 152.121 121.074 152.763 121.079C154.405 121.079 156.057 121.02 157.709 121.079C158.673 121.092 159.594 121.48 160.28 122.162C160.966 122.845 161.363 123.768 161.389 124.739Z" fill="#1F2CA1"/>
<path d="M139.049 136.097C138.993 137.599 138.354 139.018 137.27 140.049C136.186 141.081 134.743 141.642 133.253 141.612C131.781 141.555 130.388 140.922 129.372 139.846C128.356 138.771 127.796 137.338 127.811 135.852C127.827 134.367 128.416 132.946 129.455 131.892C130.493 130.838 131.899 130.234 133.372 130.209C134.13 130.215 134.879 130.372 135.576 130.672C136.273 130.972 136.903 131.409 137.432 131.957C137.96 132.504 138.375 133.153 138.653 133.863C138.93 134.574 139.065 135.334 139.049 136.097Z" fill="#FF8500"/>
<path d="M139.044 150.278C136.759 154.705 133.604 155.952 130.271 153.768C128.975 152.915 128.293 151.639 127.739 150.278C127.11 144.793 131.947 142.24 135.528 143.796C138.357 145.042 139.217 147.391 139.044 150.278Z" fill="#FF8500"/>
<path d="M254.135 133.604C252.31 134.432 250.485 134.292 248.655 133.644C244.812 130.199 244.807 127.162 248.655 123.308C250.462 122.775 252.382 122.775 254.189 123.308C258.19 127.392 258.18 130.119 254.135 133.604Z" fill="#FF8500"/>
<path d="M199.554 177.83C198.812 178.329 197.962 178.13 197.16 178.13C176.26 178.13 155.363 178.13 134.469 178.13C132.194 178.13 129.85 178.269 127.842 176.813C129.905 176.085 131.878 177.132 133.925 177.122C154.829 177.039 175.736 177.029 196.646 177.093C197.655 177.068 198.852 176.609 199.554 177.83Z" fill="#1F2CA1"/>
<path d="M171.265 147.221C168.263 146.632 166.675 144.508 165.681 141.841C165.249 140.764 164.99 139.624 164.915 138.465C164.633 129.939 164.692 121.413 164.88 112.887C164.948 112.487 165.075 112.098 165.256 111.735C166.166 112.408 165.825 113.406 165.83 114.268C165.83 120.999 165.939 127.73 165.83 134.452C165.736 139.438 166.26 144.035 171.191 146.747C171.265 146.797 171.24 147.061 171.265 147.221Z" fill="#1F2CA1"/>
<path d="M187.289 125.212C187.363 128.937 187.363 132.691 187.289 136.396C187.086 145.371 181.047 149.858 172.313 147.589C173.688 146.747 175.197 147.235 176.631 147.21C181.577 147.136 184.089 145.012 185.716 140.29C186.557 137.857 186.611 135.498 186.616 133.055C186.616 127.187 186.616 121.318 186.616 115.45C186.616 114.572 186.31 113.62 186.997 112.832C187.645 116.921 187.19 121.064 187.289 125.212Z" fill="#1F2CA1"/>
<path d="M252.369 177.94C244.219 177.99 236.066 178.038 227.913 178.084C224.04 178.084 220.168 178.084 216.295 178.084C216.454 176.853 217.398 177.087 218.18 177.087H250.618C251.335 177.067 252.161 176.883 252.369 177.94Z" fill="#1F2CA1"/>
<path d="M191.933 105.039C191.933 105.039 191.934 105.094 191.894 105.123L191.933 105.039Z" fill="#1F2CA1"/>
<path d="M202.235 175.617C201.82 176.464 201.424 177.232 200.445 177.487C201.548 175.323 201.152 172.82 201.963 170.586C202.186 172.251 203.106 173.857 202.235 175.617Z" fill="#1F2CA1"/>
<path d="M186.849 111.786C184.871 110.065 184.223 107.567 183.15 105.304C185.514 106.814 186.523 109.103 186.849 111.786Z" fill="#1F2CA1"/>
<path d="M168.031 106.066C167.611 108.061 166.968 109.911 165.361 111.277C165.423 110.269 165.692 109.285 166.152 108.388C166.612 107.491 167.252 106.7 168.031 106.066Z" fill="#1F2CA1"/>
<path d="M168.847 105.394C168.768 105.817 168.639 106.181 168.081 106.017L168.847 105.394Z" fill="#1F2CA1"/>
<path d="M173.238 138.675C172.19 138.526 172.279 137.723 172.279 136.97C172.279 129.581 172.279 122.192 172.279 114.802C172.279 114.119 172.279 113.436 173.144 113.267C173.144 121.081 173.128 128.893 173.095 136.701C172.709 137.025 172.719 137.344 173.095 137.648C173.154 138.007 173.199 138.346 173.238 138.675Z" fill="#1F2CA1"/>
<path d="M173.115 137.678C172.715 137.374 172.705 137.055 173.115 136.73C173.095 137.035 173.105 137.354 173.115 137.678Z" fill="#1F2CA1"/>
</g>
<defs>
<linearGradient id="paint0_linear_947_1280" x1="152.706" y1="13.401" x2="177.068" y2="291.006" gradientUnits="userSpaceOnUse">
<stop stop-color="#FFC300"/>
<stop offset="1" stop-color="#DBA700"/>
</linearGradient>
<linearGradient id="paint1_linear_947_1280" x1="50.5" y1="30" x2="333" y2="270" gradientUnits="userSpaceOnUse">
<stop stop-color="#BC98FF"/>
<stop offset="1" stop-color="#5A00C7"/>
</linearGradient>
<clipPath id="clip0_947_1280">
<rect width="146.871" height="95.2674" fill="white" transform="translate(119 103)"/>
</clipPath>
</defs>
</svg>
