<svg width="69" height="69" viewBox="0 0 69 69" fill="none" xmlns="http://www.w3.org/2000/svg">
<circle cx="34.4999" cy="34.4999" r="27.9286" fill="url(#paint0_linear_939_1651)"/>
<path d="M36.3368 20.3653L46.8854 31.0499C47.2809 31.4506 47.4787 31.9848 47.4787 32.519C47.4787 33.12 47.2809 33.6542 46.8854 34.0549C46.0942 34.923 44.7097 34.923 43.9186 34.0549L36.9302 27.0432L36.9302 47.4774C36.9302 48.6794 36.0072 49.6143 34.8205 49.6143C33.6997 49.6143 32.7108 48.6794 32.7108 47.4774L32.7108 27.0432L25.7883 34.0549C24.9971 34.923 23.6127 34.923 22.8215 34.0549C21.9644 33.2536 21.9644 31.8512 22.8215 31.0499L33.37 20.3653C34.1612 19.4972 35.5457 19.4972 36.3368 20.3653Z" fill="white"/>
<path d="M69 34.5C69 53.5538 53.5538 69 34.5 69C15.4462 69 0 53.5538 0 34.5C0 15.4462 15.4462 0 34.5 0C53.5538 0 69 15.4462 69 34.5ZM5.04253 34.5C5.04253 50.7689 18.2311 63.9575 34.5 63.9575C50.7689 63.9575 63.9575 50.7689 63.9575 34.5C63.9575 18.2311 50.7689 5.04253 34.5 5.04253C18.2311 5.04253 5.04253 18.2311 5.04253 34.5Z" fill="url(#paint1_linear_939_1651)"/>
<defs>
<linearGradient id="paint0_linear_939_1651" x1="12.8185" y1="11.716" x2="55.4463" y2="56.9162" gradientUnits="userSpaceOnUse">
<stop stop-color="#9D04D2"/>
<stop offset="1" stop-color="#7E01AA"/>
</linearGradient>
<linearGradient id="paint1_linear_939_1651" x1="11.5" y1="10.6375" x2="56.0625" y2="60.0875" gradientUnits="userSpaceOnUse">
<stop offset="0.0140666" stop-color="#9D04D3"/>
<stop offset="0.369" stop-color="#7E00AA"/>
</linearGradient>
</defs>
</svg>
