<svg width="133" height="38" viewBox="0 0 133 38" fill="none" xmlns="http://www.w3.org/2000/svg">
<path d="M7.35014 0.436831C4.62943 1.56184 1.65528 4.78944 0.711307 8.81619C-0.486113 13.9317 4.4846 16.0705 4.88288 15.3464C5.35357 14.511 4.01133 14.2214 3.72167 11.5731C3.3596 8.16446 4.9553 4.35496 6.94927 2.65064C7.31134 2.32477 7.31134 2.75926 7.31134 3.5584C7.31134 4.97306 7.23893 17.8499 7.23893 20.5344C7.23893 24.1628 7.0941 25.3214 6.80444 26.4465C6.51479 27.6077 6.07772 28.368 6.44237 28.6603C6.80444 28.9861 8.40014 28.1896 9.30791 26.9197C10.3967 25.3964 10.795 23.5473 10.8674 21.5145C10.9398 19.0835 10.9398 15.2766 10.9398 13.0628C10.9398 11.0688 10.976 5.19289 10.9036 1.63684C10.87 0.873903 8.47514 -0.0338608 7.35014 0.436831ZM103.581 17.4128C103.508 19.2981 103.074 20.7852 102.564 21.8016C101.548 23.8318 99.4817 24.4499 98.6101 21.5482C98.1394 19.9525 98.1032 17.3404 98.4653 15.1292C98.8274 12.8791 99.8075 11.1748 101.439 11.3559C103.002 11.5369 103.762 13.6059 103.581 17.4128ZM76.4488 29.1284C76.4126 32.2473 75.9419 35.0043 74.8893 35.8034C73.4022 36.9284 71.372 36.0931 71.7703 33.8094C72.1324 31.7792 73.8729 29.7103 76.4488 27.1706C76.4488 27.2068 76.4488 27.7861 76.4488 29.1284ZM76.0505 17.4128C75.9419 19.1171 75.5074 20.8576 75.0341 21.8378C74.0177 23.868 71.9151 24.4861 71.0798 21.5844C70.5005 19.5904 70.6453 17.0507 70.935 15.4188C71.3332 13.3162 72.241 11.3921 73.9091 11.3921C75.4686 11.3559 76.2678 13.1326 76.0505 17.4128ZM60.3444 17.3766C60.2358 19.1895 59.8737 20.7128 59.328 21.8378C58.3116 23.8318 56.2452 24.4861 55.3737 21.5844C54.722 19.518 54.9392 16.6524 55.2288 15.1292C55.6271 12.8429 56.6435 11.2472 58.203 11.3921C59.7651 11.5369 60.5254 13.6059 60.3444 17.3766ZM132.309 19.518C131.91 19.518 131.729 19.9162 131.582 20.6068C131.075 22.9654 130.529 23.5085 129.841 23.5085C129.078 23.5085 128.354 22.3473 128.173 19.9912C128.028 18.1421 128.065 14.7309 128.246 11.3584C128.282 10.6705 128.101 9.97998 126.215 9.29205C125.416 9.00239 124.258 8.56532 123.676 9.97998C122.044 13.9343 121.39 17.0895 121.245 18.3593C121.245 18.4318 121.172 18.4318 121.136 18.2869C121.027 17.2705 120.81 15.4214 120.81 11.5033C120.81 10.7403 120.629 10.0886 119.794 9.5455C119.251 9.18343 117.58 8.60153 117.001 9.32826C116.494 9.90757 115.876 11.5059 115.26 13.4274C114.753 14.9507 114.389 16.0033 114.389 16.0033C114.389 16.0033 114.389 11.8679 114.389 10.2722C114.389 9.69292 113.99 9.47308 113.846 9.43688C113.302 9.29205 112.214 9.00239 111.743 9.00239C111.164 9.00239 111.016 9.32826 111.016 9.80153C111.016 9.87395 110.944 15.2792 110.944 19.0499C110.944 19.2309 110.944 19.3757 110.944 19.593C110.618 21.3335 109.602 23.6921 108.477 23.6921C107.352 23.6921 106.845 22.712 106.845 18.2145C106.845 15.6024 106.917 14.4412 106.953 12.5559C106.989 11.4671 107.026 10.6343 107.026 10.4171C107.026 9.83774 106.009 9.5455 105.539 9.43688C105.068 9.32826 104.667 9.29205 104.341 9.29205C103.871 9.32826 103.578 9.61791 103.578 10.0188C103.578 10.236 103.578 10.6705 103.578 10.6705C102.999 9.76274 102.055 9.11102 101.439 8.92998C99.7713 8.42308 97.9946 8.85756 96.6524 10.7429C95.5998 12.23 94.948 13.8981 94.6946 16.293C94.5135 18.0335 94.586 19.8102 94.9118 21.3335C94.5135 23.0378 93.7868 23.7283 92.9903 23.7283C91.829 23.7283 90.9963 21.843 91.1049 18.5766C91.1773 16.4378 91.6118 14.9119 92.0851 12.7369C92.3023 11.7929 92.1213 11.3222 91.723 10.8515C91.3609 10.4171 90.5618 10.1998 89.4006 10.4895C88.5652 10.6705 87.4066 10.8877 86.354 11.0326C86.354 11.0326 86.4264 10.7791 86.4626 10.3058C86.7523 7.91101 84.1402 8.12825 83.3075 8.89118C82.8006 9.36188 82.4721 9.87136 82.3635 10.849C82.1462 12.3722 83.4161 13.099 83.4161 13.099C83.0178 14.9843 82.0014 17.4154 80.9488 19.1921C80.4057 20.1361 79.9686 20.8602 79.4255 21.5869C79.4255 21.2973 79.4255 21.0438 79.4255 20.7516C79.4255 16.7973 79.4617 13.7145 79.4979 12.5895C79.5341 11.5007 79.5704 10.6679 79.5704 10.4869C79.5704 10.0524 79.3169 9.90757 78.8074 9.68774C78.3367 9.50671 77.791 9.39809 77.2479 9.32567C76.5212 9.25326 76.1229 9.65153 76.1229 10.0886C76.1229 10.161 76.1229 10.7041 76.1229 10.7041C75.5436 9.79636 74.5996 9.14463 73.9841 8.9636C72.316 8.4567 70.5393 8.89119 69.197 10.7765C68.1444 12.2636 67.4565 14.33 67.2393 16.2904C67.0582 18.1395 67.0944 19.699 67.3479 21.0413C67.0944 22.3835 66.2953 23.762 65.4263 23.762C64.3013 23.762 63.6858 22.7818 63.6858 18.2843C63.6858 15.6723 63.7582 14.511 63.7944 12.6257C63.8306 11.5369 63.8668 10.7041 63.8668 10.4869C63.8668 9.90757 62.8504 9.61533 62.3797 9.50671C61.8728 9.39808 61.472 9.36188 61.1461 9.36188C60.7116 9.39809 60.4194 9.79636 60.4194 10.0498V10.7015C59.8401 9.79377 58.8961 9.14205 58.2806 8.96101C56.6125 8.45411 54.8357 8.9248 53.4935 10.774C52.6219 11.9714 51.934 13.3136 51.5357 16.2878C51.4271 17.1593 51.3909 17.9559 51.3909 18.6826C51.0288 20.8214 49.5055 23.2525 48.2357 23.2525C47.509 23.2525 46.7848 21.8378 46.7848 18.7912C46.7848 14.7283 47.0383 8.99722 47.0745 8.41791C47.0745 8.41791 48.6702 8.3817 48.9598 8.3817C49.759 8.3817 50.4831 8.3817 51.5357 8.34549C52.0788 8.30928 52.5883 6.42393 52.0426 6.16789C51.7892 6.05927 50.0487 5.98686 49.3581 5.95065C48.7788 5.95065 47.1443 5.80583 47.1443 5.80583C47.1443 5.80583 47.2892 1.99632 47.3254 1.56184C47.3616 1.23597 46.9271 1.05493 46.6736 0.946313C46.0581 0.692864 45.5124 0.584245 44.8969 0.439416C43.9891 0.258381 43.5909 0.439416 43.5184 1.20235C43.4098 2.32736 43.3374 5.66358 43.3374 5.66358C42.6857 5.66358 40.4357 5.51875 39.7839 5.51875C39.1684 5.51875 38.5141 8.13084 39.3495 8.16705C40.3296 8.20325 41.9977 8.23946 43.1227 8.27567C43.1227 8.27567 43.0865 14.1154 43.0865 15.9283C43.0865 16.1093 43.0865 16.2904 43.0865 16.4714C42.471 19.6628 40.2934 21.4033 40.2934 21.4033C40.7641 19.3007 39.8227 17.7024 38.1158 16.3628C37.5003 15.8559 36.2305 14.9119 34.852 13.8955C34.852 13.8955 35.6512 13.0964 36.3753 11.5007C36.8822 10.3757 36.9184 9.06964 35.6486 8.77998C33.5822 8.30929 31.9115 9.83257 31.4046 11.4283C31.0063 12.6619 31.2235 13.6059 31.9839 14.5473C32.0563 14.6197 32.0925 14.6921 32.1649 14.7645C31.6942 15.6723 31.0761 16.8671 30.533 17.7749C29.0459 20.3507 27.9209 22.4171 27.052 22.4171C26.364 22.4171 26.364 20.3507 26.364 18.3904C26.364 16.7223 26.4727 14.1826 26.5813 11.5705C26.6175 10.699 26.183 10.2283 25.4563 9.75757C25.0218 9.50412 24.0778 8.95843 23.5347 8.95843C22.7356 8.95843 20.3795 9.06705 18.1657 15.4886C17.8761 16.2878 17.3304 17.7749 17.3304 17.7749L17.3666 10.0498C17.3666 9.86878 17.2579 9.68774 17.0407 9.57912C16.6786 9.36188 15.6623 8.9636 14.7907 8.9636C14.3562 8.9636 14.1752 9.14464 14.1752 9.54291L14.1028 21.6206C14.1028 22.5283 14.139 23.6145 14.2114 24.0878C14.2838 24.5585 14.4648 24.9232 14.6459 25.1766C14.8269 25.3939 15.0441 25.5749 15.3726 25.6473C15.6985 25.7197 17.439 25.937 17.5502 25.2852C17.6588 24.4861 17.6588 23.6171 18.6028 20.3533C20.0537 15.274 21.9028 12.8093 22.8106 11.9378C22.9554 11.7929 23.1364 11.7929 23.1364 12.0102C23.1002 13.1352 22.9554 15.8921 22.883 18.2481C22.6295 24.5585 23.7907 25.7197 25.4226 25.7197C26.6925 25.7197 28.433 24.4861 30.3546 21.3309C31.552 19.3731 32.677 17.449 33.5098 16.0343C34.0891 16.5774 34.7434 17.1231 35.3589 17.7386C36.846 19.1533 37.3529 20.4956 37.027 21.8016C36.7736 22.7818 35.8296 23.7956 34.1615 22.818C33.6908 22.5283 33.4736 22.3111 32.9641 21.9826C32.7106 21.8016 32.3123 21.7654 32.0563 21.9464C31.4408 22.4171 31.0761 23.0352 30.8589 23.7594C30.6779 24.4861 31.3658 24.8482 32.1287 25.2102C32.7805 25.4999 34.1589 25.7533 35.0667 25.7896C38.5115 25.8982 41.2684 24.1214 43.1926 19.5154C43.5184 23.4697 45.0055 25.7171 47.5452 25.7171C49.2495 25.7171 50.9538 23.5033 51.7168 21.3645C51.934 22.2361 52.2599 23.0326 52.6607 23.6508C54.6185 26.7697 58.428 26.0818 60.3496 23.4335C60.9289 22.6344 61.0375 22.3085 61.0375 22.3085C61.3272 24.812 63.3237 25.6809 64.4824 25.6809C65.7884 25.6809 67.0944 25.0654 68.0358 22.9602C68.1444 23.1775 68.2531 23.3947 68.3979 23.612C70.3557 26.7309 74.1652 26.043 76.0867 23.3947C76.1591 23.2861 76.2678 23.1413 76.3402 23.0689L76.4126 24.7008C76.4126 24.7008 75.3238 25.7171 74.6359 26.3327C71.6979 29.0534 69.4479 31.0835 69.2669 33.4784C69.0496 36.525 71.5169 37.65 73.4022 37.7948C75.3962 37.9396 77.1031 36.8508 78.1169 35.3275C79.0247 33.9853 79.6402 31.0835 79.604 28.1818C79.604 27.0206 79.5678 25.5697 79.5316 24.0102C80.5842 22.8128 81.7454 21.2895 82.7954 19.5128C83.9566 17.5912 85.2264 14.9792 85.8782 12.9464C85.8782 12.9464 86.967 12.9464 88.1282 12.874C88.4902 12.8378 88.5989 12.9102 88.5264 13.1998C88.454 13.5257 87.0394 18.8947 88.3092 22.4482C89.1808 24.8792 91.1385 25.6758 92.2997 25.6758C93.642 25.6758 94.948 24.6594 95.636 23.1361C95.7084 23.3171 95.817 23.462 95.8894 23.6068C97.8472 26.7258 101.657 26.0378 103.578 23.3895C104.013 22.8102 104.266 22.2645 104.266 22.2645C104.664 24.8404 106.697 25.637 107.82 25.637C109.017 25.637 110.142 25.1301 111.083 22.9525C111.12 23.8964 111.192 24.693 111.265 24.9464C111.337 25.0913 111.663 25.2723 111.916 25.3809C113.005 25.7792 114.13 25.5982 114.528 25.5258C114.818 25.4533 115.035 25.2361 115.071 24.6542C115.144 23.0947 115.108 20.4826 115.578 18.5249C116.377 15.261 117.102 13.9912 117.464 13.3731C117.645 13.011 117.898 12.9748 117.898 13.3369C117.898 14.0998 117.934 16.3111 118.26 19.249C118.477 21.4266 118.803 22.7301 119.023 23.1309C119.675 24.2921 120.51 24.3646 121.162 24.3646C121.596 24.3646 122.468 24.2559 122.396 23.493C122.359 23.1309 122.432 20.8809 123.195 17.6895C123.702 15.5869 124.573 13.699 124.863 13.011C124.971 12.7576 125.044 12.9748 125.044 13.011C124.971 14.4619 124.827 19.1766 125.406 21.7887C126.205 25.3059 128.525 25.6706 129.324 25.6706C131.028 25.6706 132.443 24.3645 132.914 20.9197C132.997 20.1335 132.852 19.518 132.309 19.518Z" fill="white"/>
</svg>
