<svg width="151" height="38" viewBox="0 0 151 38" fill="none" xmlns="http://www.w3.org/2000/svg">
<g clip-path="url(#clip0_1202_199)">
<path d="M1.51965 5.85034H7.30877V26.9208H18.0198V32.2646H1.51965V5.85034ZM20.5745 14.37H26.1293V32.2529H20.5745V14.37ZM23.3519 5.47534C23.9893 5.47534 24.6123 5.66435 25.1423 6.01846C25.6723 6.37258 26.0853 6.87589 26.3293 7.46476C26.5732 8.05363 26.637 8.7016 26.5126 9.32674C26.3883 9.95188 26.0814 10.5261 25.6307 10.9768C25.18 11.4275 24.6057 11.7344 23.9806 11.8588C23.3555 11.9831 22.7075 11.9193 22.1186 11.6754C21.5297 11.4315 21.0264 11.0184 20.6723 10.4885C20.3182 9.95849 20.1292 9.33541 20.1292 8.69803C20.1292 7.84332 20.4687 7.02362 21.0731 6.41925C21.6775 5.81488 22.4972 5.47534 23.3519 5.47534ZM49.3795 5.85034H54.9342V21.6356L61.2389 14.3465H68.0476L60.7585 22.6317L67.8953 32.2646H60.9108L55.0045 23.4169H54.9342V32.2646H49.3795V5.85034ZM29.2113 14.37H34.5082V16.8192H34.5785C35.1129 15.9069 35.8841 15.1562 36.8104 14.6466C37.7367 14.137 38.7837 13.8875 39.8403 13.9246C45.4771 13.9246 46.5083 17.6278 46.5083 22.4442V32.2646H41.0005V23.5575C41.0005 21.4833 41.0005 18.87 38.1059 18.87C35.2114 18.87 34.766 21.1317 34.766 23.4638V32.3115H29.2113V14.37Z" fill="white"/>
<path d="M79.7548 21.2257C79.766 20.7748 79.6855 20.3263 79.5181 19.9075C79.3507 19.4887 79.0999 19.1082 78.781 18.7893C78.4621 18.4704 78.0816 18.2196 77.6628 18.0522C77.244 17.8848 76.7955 17.8043 76.3446 17.8155C75.3734 17.7541 74.4171 18.0775 73.6824 18.7156C72.9477 19.3538 72.4938 20.2555 72.4187 21.2257H79.7548ZM84.4423 29.1594C83.5152 30.2704 82.3533 31.162 81.0402 31.7699C79.727 32.3778 78.2954 32.687 76.8485 32.6751C71.2937 32.6751 66.8406 28.9719 66.8406 23.2179C66.8406 17.464 71.2937 13.7725 76.8485 13.7725C82.0399 13.7725 85.2978 17.4757 85.2978 23.2179V24.964H72.407C72.5602 25.9574 73.0687 26.8614 73.8382 27.508C74.6077 28.1547 75.5858 28.4999 76.5907 28.4797C77.3822 28.4786 78.1606 28.277 78.8532 27.8938C79.5458 27.5106 80.1301 26.9583 80.5516 26.2883L84.4423 29.1594ZM96.8877 18.6827C95.9806 18.6547 95.0859 18.8981 94.3179 19.3817C93.55 19.8653 92.9439 20.5671 92.5772 21.3972C92.2105 22.2273 92.0999 23.148 92.2596 24.0414C92.4193 24.9347 92.842 25.7601 93.4736 26.4118C94.1051 27.0634 94.9168 27.5118 95.8048 27.6994C96.6927 27.887 97.6164 27.8053 98.4576 27.4648C99.2988 27.1243 100.019 26.5404 100.527 25.788C101.034 25.0356 101.305 24.1489 101.306 23.2414C101.355 22.6392 101.275 22.0333 101.071 21.4648C100.866 20.8963 100.541 20.3784 100.119 19.9462C99.6969 19.5139 99.1867 19.1774 98.6231 18.9595C98.0596 18.7415 97.4558 18.6471 96.8526 18.6827M106.462 32.2532H101.306V29.9094C100.662 30.7686 99.8292 31.4688 98.8724 31.9563C97.9156 32.4438 96.8599 32.7057 95.7862 32.7219C90.4424 32.7219 86.9267 28.8664 86.9267 23.4172C86.9267 18.4132 90.0439 13.8194 95.1299 13.8194C96.1993 13.7254 97.2755 13.8892 98.2685 14.297C99.2615 14.7048 100.142 15.3448 100.837 16.1632H100.907V5.85059H106.462V32.2532Z" fill="white"/>
<path d="M146.541 0.307298H114.618C114.256 0.302627 113.896 0.370194 113.56 0.506056C113.224 0.641918 112.918 0.843354 112.661 1.09861C112.403 1.35388 112.199 1.65785 112.06 1.9928C111.922 2.32775 111.851 2.68697 111.853 3.04951V35.1006C111.856 35.4602 111.93 35.8156 112.071 36.1465C112.211 36.4773 112.416 36.7771 112.673 37.0287C112.93 37.2802 113.234 37.4785 113.568 37.6122C113.902 37.7459 114.259 37.8123 114.618 37.8076H146.541C146.904 37.817 147.265 37.7541 147.603 37.6227C147.942 37.4913 148.251 37.2939 148.513 37.0421C148.774 36.7902 148.983 36.4889 149.128 36.1556C149.272 35.8223 149.348 35.4637 149.353 35.1006V3.04951C149.353 2.6834 149.28 2.32098 149.138 1.98361C148.996 1.64625 148.787 1.34076 148.525 1.08519C148.263 0.829607 147.952 0.629106 147.612 0.495506C147.271 0.361906 146.906 0.297911 146.541 0.307298ZM122.962 32.2646H117.407V14.3699H122.962V32.2646ZM120.185 11.9441C119.547 11.9441 118.924 11.7551 118.394 11.401C117.864 11.0469 117.451 10.5436 117.207 9.9547C116.964 9.36584 116.9 8.71786 117.024 8.09272C117.148 7.46758 117.455 6.89335 117.906 6.44265C118.357 5.99195 118.931 5.68502 119.556 5.56068C120.181 5.43633 120.829 5.50015 121.418 5.74406C122.007 5.98798 122.51 6.40104 122.864 6.93101C123.218 7.46098 123.407 8.08405 123.407 8.72144C123.407 9.57615 123.068 10.3958 122.464 11.0002C121.859 11.6046 121.04 11.9441 120.185 11.9441ZM143.775 32.2646H138.22V23.5692C138.22 21.495 138.22 18.8817 135.337 18.8817C132.454 18.8817 131.997 21.1434 131.997 23.4755V32.3232H126.443V14.3699H131.775V16.8309H131.845C132.381 15.9208 133.153 15.1724 134.079 14.6649C135.005 14.1574 136.051 13.9098 137.107 13.948C142.732 13.948 143.775 17.6512 143.775 22.4677V32.2646Z" fill="white"/>
</g>
<defs>
<clipPath id="clip0_1202_199">
<rect width="150.001" height="37.5003" fill="white" transform="translate(0.523438 0.307373)"/>
</clipPath>
</defs>
</svg>
