<svg width="113" height="38" viewBox="0 0 113 38" fill="none" xmlns="http://www.w3.org/2000/svg">
<path d="M28.1431 27.9046C24.6474 25.8856 21.3036 23.9546 17.9603 22.0228C16.4169 21.1311 14.8826 20.2227 13.3258 19.3552C12.8865 19.1103 12.8269 18.9072 13.0346 18.4375C14.476 15.1777 15.8787 11.9007 17.2959 8.63018C17.5414 8.06374 17.7342 7.46128 18.5389 7.4513C19.3442 7.44132 19.5442 8.01937 19.7952 8.59876C22.4807 14.797 25.17 20.9935 27.8632 27.1884C27.9399 27.3653 28.0041 27.5477 28.1431 27.9046ZM12.3607 19.9879C12.5665 19.504 12.7316 19.4315 13.205 19.7188C14.8035 20.6894 16.4367 21.6031 18.1615 22.599L9.11353 27.8319" fill="white"/>
<path d="M18.6186 35.5894C15.3018 35.5894 12.0596 34.6059 9.30183 32.7632C6.54407 30.9205 4.39466 28.3015 3.1254 25.2372C1.85614 22.173 1.52405 18.8011 2.17111 15.5481C2.81817 12.2951 4.41533 9.30707 6.76061 6.96178C9.10589 4.6165 12.094 3.01934 15.347 2.37228C18.6 1.72522 21.9718 2.05731 25.036 3.32657C28.1003 4.59583 30.7194 6.74524 32.5621 9.503C34.4047 12.2608 35.3883 15.503 35.3883 18.8197C35.3883 21.022 34.9545 23.2026 34.1117 25.2372C33.269 27.2718 32.0337 29.1205 30.4765 30.6777C28.9193 32.2349 27.0706 33.4702 25.036 34.3129C23.0015 35.1557 20.8208 35.5894 18.6186 35.5894ZM18.6186 3.83692C15.6552 3.83692 12.7585 4.71564 10.2946 6.36198C7.83064 8.00831 5.91026 10.3483 4.77624 13.0861C3.64223 15.8238 3.34552 18.8364 3.92364 21.7427C4.50175 24.6491 5.92873 27.3188 8.02411 29.4142C10.1195 31.5096 12.7892 32.9366 15.6956 33.5147C18.6019 34.0928 21.6145 33.7961 24.3522 32.6621C27.09 31.528 29.43 29.6077 31.0763 27.1438C32.7227 24.6798 33.6014 21.7831 33.6014 18.8197C33.6014 14.846 32.0228 11.0351 29.213 8.22528C26.4032 5.41546 22.5923 3.83692 18.6186 3.83692Z" fill="white"/>
<path d="M52.6971 12.3433H56.4962V24.9791H54.036V16.4322C54.036 16.1867 54.0389 15.8424 54.0447 15.3994C54.05 14.9567 54.0528 14.6152 54.053 14.375L51.6586 24.9791H49.0924L46.7153 14.375C46.7153 14.615 46.7181 14.9565 46.7236 15.3994C46.7292 15.8422 46.7321 16.1865 46.7322 16.4322V24.9791H44.2723V12.343H48.1141L50.4141 22.2786L52.6971 12.3433ZM64.8308 15.8244C65.4894 16.1222 66.0495 16.6015 66.4455 17.2063C66.8375 17.7852 67.0922 18.4461 67.19 19.1385C67.2649 19.7536 67.2918 20.3736 67.2704 20.9929H60.4655C60.5032 21.9302 60.8288 22.5874 61.4423 22.9644C61.8485 23.2077 62.3159 23.3296 62.7893 23.3158C63.1711 23.3458 63.5531 23.2595 63.8849 23.0682C64.2168 22.877 64.483 22.5897 64.6485 22.2443H67.1429C67.0303 22.8898 66.7127 23.4819 66.2373 23.9329C65.4003 24.8416 64.2285 25.2961 62.722 25.2963C61.5239 25.3121 60.3585 24.9051 59.4309 24.1467C58.4802 23.38 58.0049 22.1329 58.0049 20.4056C58.0049 18.7871 58.434 17.546 59.2921 16.6821C59.7307 16.249 60.2536 15.9106 60.8284 15.6877C61.4032 15.4649 62.0175 15.3624 62.6335 15.3866C63.3887 15.3749 64.1377 15.5241 64.8308 15.8244ZM61.176 17.9347C60.8101 18.335 60.5819 18.8421 60.525 19.3815H64.7342C64.732 19.104 64.673 18.8299 64.5611 18.576C64.4492 18.3221 64.2865 18.0938 64.0832 17.9049C63.6791 17.5637 63.163 17.3842 62.6344 17.401C62.3677 17.3846 62.1004 17.4236 61.8494 17.5154C61.5985 17.6073 61.3692 17.75 61.176 17.9347ZM67.5459 17.4609V15.7211H68.8488V13.1149H71.2664V15.7208H72.7835V17.4609H71.2664V22.3986C71.2328 22.6468 71.2842 22.8991 71.412 23.1145C71.5093 23.2086 71.8065 23.2557 72.3037 23.2557C72.3778 23.2557 72.4565 23.2548 72.5393 23.2518C72.622 23.2488 72.7034 23.2444 72.7835 23.2387V25.0649L71.6265 25.1074C70.472 25.1472 69.6833 24.9472 69.2604 24.5077C68.9581 24.1471 68.8103 23.682 68.8488 23.2131V17.4609L67.5459 17.4609ZM78.0532 19.2957C78.3863 19.2668 78.7143 19.1948 79.0288 19.0813C79.1793 19.0369 79.3116 18.9455 79.4064 18.8206C79.5013 18.6956 79.5537 18.5436 79.556 18.3868C79.572 18.2297 79.5423 18.0714 79.4706 17.9308C79.3988 17.7902 79.2881 17.6732 79.1515 17.594C78.7793 17.4274 78.3726 17.3523 77.9654 17.3751C77.3805 17.3751 76.9663 17.5181 76.7229 17.804C76.533 18.0539 76.4131 18.3498 76.3754 18.6614H74.0179C74.0375 17.9354 74.2778 17.2327 74.7067 16.6467C75.3554 15.8237 76.4689 15.4123 78.0473 15.4123C78.9953 15.3944 79.9339 15.6031 80.785 16.021C81.5828 16.4268 81.9816 17.1926 81.9816 18.3183V22.6044C81.9816 22.9016 81.9873 23.2616 81.9986 23.6845C81.9923 23.9104 82.0425 24.1343 82.1445 24.3358C82.2372 24.4605 82.3615 24.5582 82.5046 24.6188V24.9791H79.8472C79.7778 24.8076 79.726 24.6295 79.6927 24.4475C79.6643 24.2817 79.6415 24.0931 79.6242 23.8817C79.2821 24.2499 78.8868 24.5649 78.4514 24.8162C77.9044 25.1237 77.2857 25.2804 76.6583 25.2704C75.89 25.2993 75.1384 25.0411 74.5501 24.5461C74.2674 24.2874 74.046 23.9688 73.902 23.6136C73.7581 23.2584 73.6952 22.8756 73.718 22.493C73.718 21.3442 74.1642 20.5128 75.0567 19.9985C75.7321 19.6641 76.4647 19.4604 77.2158 19.3982L78.0532 19.2957ZM79.547 20.4357C79.3971 20.5295 79.2384 20.6085 79.0732 20.6716C78.8597 20.7456 78.6404 20.8014 78.4174 20.8383L77.8611 20.9414C77.4713 20.9919 77.0922 21.1048 76.7384 21.2758C76.5544 21.3769 76.4026 21.5278 76.3005 21.7112C76.1984 21.8946 76.1501 22.1032 76.1612 22.3128C76.1456 22.4806 76.1693 22.6497 76.2305 22.8067C76.2916 22.9637 76.3886 23.1042 76.5135 23.2172C76.7586 23.4065 77.0617 23.505 77.3712 23.496C77.8989 23.4977 78.4143 23.336 78.8463 23.0329C79.296 22.7244 79.5295 22.1615 79.547 21.3443L79.547 20.4357ZM86.6108 24.9791H84.1673V12.343H86.6108V24.9791ZM89.191 12.3433H91.8314V22.7071H98.1405V24.9791H89.1913L89.191 12.3433ZM109.339 13.6891C109.734 14.2534 109.937 14.9296 109.919 15.6181C109.952 16.288 109.744 16.9477 109.334 17.4782C109.064 17.7804 108.736 18.0253 108.37 18.1983C108.967 18.3962 109.481 18.7886 109.83 19.3127C110.171 19.8686 110.342 20.5122 110.322 21.1642C110.332 21.8759 110.137 22.5755 109.759 23.1789C109.508 23.5982 109.172 23.96 108.771 24.2405C108.371 24.5211 107.916 24.7142 107.437 24.8073C106.849 24.9257 106.251 24.9833 105.651 24.9791H99.958V12.343H106.064C107.605 12.3663 108.697 12.815 109.339 13.6891ZM102.478 14.5379V17.3236H105.549C106.015 17.344 106.477 17.2358 106.885 17.0109C107.063 16.8894 107.205 16.7221 107.295 16.5267C107.385 16.3313 107.421 16.1151 107.399 15.901C107.399 15.3123 107.172 14.9237 106.72 14.735C106.236 14.5904 105.732 14.5239 105.227 14.5379L102.478 14.5379ZM102.478 19.4154V22.7843H105.546C105.983 22.805 106.42 22.729 106.826 22.5615C107.379 22.2875 107.656 21.7618 107.656 20.9843C107.679 20.7028 107.614 20.4211 107.47 20.1783C107.326 19.9355 107.109 19.7437 106.851 19.6299C106.449 19.474 106.019 19.401 105.588 19.4154L102.478 19.4154Z" fill="white"/>
</svg>
