<svg width="155" height="33" viewBox="0 0 155 33" fill="none" xmlns="http://www.w3.org/2000/svg">
<g clip-path="url(#clip0_1202_193)">
<path d="M0.893799 -0.00512695V15.5875H16.4864V-0.00512695H0.893799ZM18.114 -0.00512695V15.5875H33.7066V-0.00512695H18.114ZM144.634 5.10747C143.642 5.10747 142.777 5.33649 141.989 5.71804C141.2 6.15045 140.615 6.73539 140.183 7.52391C139.75 8.287 139.522 9.15203 139.522 10.144V12.1024H137.207V14.7986H139.522V26.1942H142.854V14.8244H147.839V22.0738C147.839 25.0498 149.238 26.5504 152.036 26.5504C152.494 26.5504 152.977 26.4742 153.435 26.3979C153.918 26.2962 154.275 26.1688 154.478 26.0671L154.504 26.0417V23.3197L154.376 23.4216C154.173 23.5488 153.995 23.6508 153.689 23.7271C153.435 23.8034 153.206 23.8285 153.028 23.8285C152.367 23.8285 151.909 23.6759 151.578 23.2944C151.273 22.9383 151.12 22.3534 151.12 21.4885V14.8244H154.504V12.1024H151.172V7.93079L151.07 7.95663L147.915 8.89757L147.839 8.92291V12.1024H142.854V10.3219C142.854 9.50794 143.057 8.87233 143.413 8.46535C143.77 8.05837 144.304 7.85478 144.965 7.85478C145.423 7.85478 145.906 7.95623 146.44 8.18516L146.567 8.26166V5.38716L146.491 5.36183C146.033 5.20921 145.423 5.10747 144.634 5.10747ZM69.6736 6.15025C69.114 6.15025 68.6561 6.35404 68.2746 6.71015C67.8931 7.06626 67.6894 7.52421 67.6894 8.08381C67.6894 8.61797 67.8931 9.07552 68.2746 9.43163C68.6561 9.78774 69.114 9.96569 69.6736 9.96569C70.2332 9.96569 70.7165 9.7623 71.0726 9.43163C71.4541 9.07552 71.6573 8.61797 71.6573 8.08381C71.6573 7.54965 71.4541 7.09169 71.0726 6.71015C70.7419 6.35404 70.2586 6.15025 69.6736 6.15025ZM60.1603 6.55763L55.1237 18.8942L54.2081 21.4885H54.1321C53.9795 20.9035 53.6997 20.0132 53.2419 18.9449L48.3325 6.6083H43.5249V26.2707H46.7044V14.1373C46.7044 13.3743 46.7045 12.5095 46.6791 11.4412C46.6537 10.907 46.6027 10.5 46.5773 10.1947H46.6538C46.8064 10.9578 46.9841 11.5173 47.1113 11.8734L53.0128 26.2196H55.2509L61.1013 11.7462C61.2285 11.4156 61.3556 10.7543 61.4828 10.1947H61.5593C61.483 11.6446 61.4322 12.9419 61.4068 13.7305V26.1942H64.7895V6.55763H60.1603ZM81.1706 11.7721C79.6699 11.7721 78.2966 12.1023 77.152 12.7637C76.0073 13.425 75.0915 14.341 74.5065 15.4857C73.896 16.6557 73.5909 18.0039 73.5909 19.5555C73.5909 20.9036 73.8961 22.0988 74.4812 23.1926C75.0662 24.2609 75.8799 25.1258 76.9736 25.7108C78.0165 26.2959 79.2376 26.6011 80.6112 26.6011C82.1882 26.6011 83.5362 26.2706 84.6045 25.6602L84.6298 25.6348V22.5825L84.5026 22.6838C84.0194 23.0399 83.4601 23.3454 82.9005 23.5234C82.3154 23.7269 81.781 23.8285 81.3231 23.8285C80.0004 23.8285 78.9577 23.4472 78.2201 22.6078C77.457 21.7939 77.0755 20.6748 77.0755 19.2758C77.0755 17.8259 77.4569 16.6813 78.2454 15.8419C79.0339 15.0025 80.0771 14.5701 81.3489 14.5701C82.4173 14.5701 83.5106 14.926 84.5026 15.6382L84.6298 15.74V12.5093L84.6045 12.484C84.1721 12.3059 83.689 12.1024 83.0276 11.9753C82.4172 11.8481 81.7811 11.7721 81.1706 11.7721ZM117.01 11.7721C115.433 11.7721 114.136 12.1533 113.118 12.9927C112.101 13.7812 111.618 14.8499 111.618 16.0962C111.618 16.7576 111.72 17.3423 111.948 17.8256C112.177 18.3089 112.508 18.767 112.966 19.1486C113.424 19.5047 114.085 19.9117 115.001 20.2932C115.764 20.6239 116.349 20.8782 116.705 21.0816C117.061 21.2851 117.29 21.5142 117.468 21.6922C117.596 21.8957 117.672 22.15 117.672 22.4806C117.672 23.4218 116.959 23.8796 115.51 23.8796C114.95 23.8796 114.365 23.7777 113.678 23.5488C112.992 23.3198 112.355 22.9894 111.821 22.6078L111.694 22.506V25.7362L111.771 25.762C112.254 25.9909 112.839 26.1434 113.551 26.3214C114.263 26.4486 114.899 26.5504 115.459 26.5504C117.163 26.5504 118.562 26.1687 119.554 25.3293C120.571 24.5153 121.106 23.4726 121.106 22.1244C121.106 21.1833 120.851 20.3439 120.292 19.708C119.554 19.0975 118.638 18.4615 117.315 17.9528C116.273 17.5204 115.612 17.1898 115.306 16.91C115.052 16.6556 114.925 16.2997 114.925 15.8419C114.925 15.4603 115.077 15.0788 115.459 14.8244C115.84 14.5701 116.273 14.4429 116.909 14.4429C117.468 14.4429 118.053 14.5446 118.613 14.6972C119.173 14.8499 119.681 15.0786 120.088 15.3838L120.215 15.4857V12.3821L120.139 12.3568C119.758 12.2042 119.249 12.0518 118.638 11.9246C118.028 11.8228 117.468 11.7721 117.01 11.7721ZM102.944 11.7974C100.629 11.7974 98.7724 12.4842 97.4752 13.8323C96.1525 15.1804 95.5168 17.037 95.5168 19.3771C95.5168 21.5646 96.178 23.3455 97.4498 24.6427C98.7216 25.9145 100.451 26.5758 102.614 26.5758C104.877 26.5758 106.683 25.8891 107.981 24.5155C109.303 23.142 109.939 21.3106 109.939 19.0467C109.939 16.8084 109.329 15.0277 108.082 13.7305C106.887 12.4332 105.131 11.7974 102.944 11.7974ZM129.83 11.7974C127.516 11.7974 125.659 12.4842 124.362 13.8323C123.064 15.1804 122.403 17.037 122.403 19.3771C122.403 21.5646 123.064 23.3455 124.336 24.6427C125.608 25.9145 127.337 26.5758 129.5 26.5758C131.763 26.5758 133.569 25.8891 134.866 24.5155C136.189 23.142 136.825 21.3106 136.825 19.0467C136.825 16.8084 136.215 15.0277 134.968 13.7305C133.773 12.4332 132.018 11.7974 129.83 11.7974ZM93.9399 11.8734C93.1259 11.8734 92.3627 12.1282 91.7013 12.6623C91.1417 13.1202 90.7602 13.7815 90.4295 14.5701H90.4042V12.1024H87.0974V26.1942H90.4042V18.9956C90.4042 17.7746 90.6583 16.7574 91.2179 16.0197C91.7775 15.2566 92.4898 14.8751 93.3547 14.8751C93.6599 14.8751 93.9652 14.9514 94.3468 15.0023C94.7029 15.104 94.9572 15.206 95.1352 15.3331L95.2624 15.4345V12.1278L95.1859 12.1024C94.957 11.9498 94.4995 11.8734 93.9399 11.8734ZM67.9949 12.1024V26.1942H71.3016V12.1024H67.9949ZM102.791 14.5189C103.962 14.5189 104.877 14.9003 105.539 15.6889C106.2 16.4774 106.556 17.622 106.556 19.1228C106.505 20.6489 106.225 21.8446 105.589 22.6332C104.979 23.4217 104.012 23.8031 102.817 23.8031C101.621 23.8031 100.655 23.4219 99.9681 22.5825C99.2813 21.794 98.9507 20.6491 98.9507 19.1993C98.9507 17.6985 99.3068 16.554 99.9681 15.74C100.655 14.9261 101.596 14.5189 102.791 14.5189ZM129.652 14.5189C130.797 14.5189 131.738 14.9003 132.399 15.6889C133.061 16.4774 133.417 17.622 133.417 19.1228C133.417 20.6489 133.086 21.8446 132.45 22.6332C131.84 23.4217 130.873 23.8031 129.678 23.8031C128.457 23.8031 127.515 23.4219 126.829 22.5825C126.142 21.794 125.811 20.6491 125.811 19.1993C125.811 17.6985 126.167 16.554 126.829 15.74C127.515 14.9261 128.457 14.5189 129.652 14.5189ZM0.893799 17.215V32.8077H16.4864V17.215H0.893799ZM18.114 17.215V32.8077H33.7066V17.215H18.114Z" fill="white"/>
</g>
<defs>
<clipPath id="clip0_1202_193">
<rect width="153.61" height="32.8128" fill="white" transform="translate(0.893799 -0.00512695)"/>
</clipPath>
</defs>
</svg>
