<svg width="93" height="38" viewBox="0 0 93 38" fill="none" xmlns="http://www.w3.org/2000/svg">
<path d="M17.6138 5.1421C16.544 6.40876 14.8324 7.40782 13.1208 7.2651C12.9069 5.55243 13.7449 3.73271 14.7255 2.60877C15.7952 1.30643 17.6672 0.378734 19.1827 0.307373C19.361 2.0914 18.6657 3.83976 17.6138 5.1421ZM19.1649 7.60406C16.6866 7.46134 14.565 9.01345 13.3883 9.01345C12.1937 9.01345 10.393 7.67542 8.43183 7.7111C5.88228 7.74678 3.51103 9.19185 2.20951 11.4932C-0.464839 16.0961 1.51418 22.9111 4.09938 26.6575C5.36524 28.5129 6.8807 30.5467 8.87755 30.4753C10.7674 30.404 11.5162 29.2444 13.7984 29.2444C16.0983 29.2444 16.758 30.4753 18.7548 30.4397C20.823 30.404 22.1245 28.5843 23.3903 26.7289C24.8345 24.6237 25.4229 22.5721 25.4585 22.465C25.4229 22.4294 21.4648 20.9129 21.4292 16.3458C21.3935 12.528 24.5492 10.7083 24.6919 10.6012C22.909 7.96087 20.1276 7.67542 19.1649 7.60406ZM33.4816 2.43037V30.2434H37.7962V20.7345H43.7689C49.2246 20.7345 53.0578 16.9881 53.0578 11.5646C53.0578 6.14116 49.2959 2.43037 43.9115 2.43037H33.4816ZM37.7962 6.06979H42.7705C46.5145 6.06979 48.654 8.06791 48.654 11.5825C48.654 15.097 46.5145 17.1129 42.7526 17.1129H37.7962V6.06979ZM60.9382 30.4575C63.6482 30.4575 66.1621 29.0838 67.3031 26.9073H67.3923V30.2434H71.386V16.3993C71.386 12.3853 68.1768 9.79842 63.2381 9.79842C58.6561 9.79842 55.2686 12.4209 55.1438 16.0247H59.0305C59.3514 14.312 60.9382 13.1881 63.1133 13.1881C65.752 13.1881 67.2318 14.4191 67.2318 16.6848V18.219L61.8475 18.5402C56.8375 18.8435 54.1275 20.8951 54.1275 24.4632C54.1275 28.0669 56.9267 30.4575 60.9382 30.4575ZM62.0971 27.157C59.7971 27.157 58.3352 26.0509 58.3352 24.3561C58.3352 22.6078 59.7437 21.5909 62.4358 21.4303L67.2318 21.127V22.697C67.2318 25.3017 65.021 27.157 62.0971 27.157ZM76.7169 37.8077C80.9245 37.8077 82.9035 36.2021 84.6329 31.3317L92.2102 10.066H87.8243L82.7431 26.497H82.6539L77.5726 10.066H73.0619L80.3718 30.3148L79.9796 31.5458C79.3199 33.6331 78.2501 34.4359 76.3424 34.4359C76.0037 34.4359 75.344 34.4002 75.0766 34.3645V37.7007C75.3262 37.772 76.3959 37.8077 76.7169 37.8077Z" fill="white"/>
</svg>
