<svg width="16" height="12" viewBox="0 0 16 12" fill="none" xmlns="http://www.w3.org/2000/svg">
<path d="M0.415574 2.24616C0.508462 1.83915 0.736804 1.47575 1.0632 1.21547C1.3896 0.955182 1.79471 0.813448 2.21219 0.813477H13.2683C13.6857 0.813448 14.0909 0.955182 14.4173 1.21547C14.7437 1.47575 14.972 1.83915 15.0649 2.24616L7.74023 6.72295L0.415574 2.24616ZM0.369507 3.29833V9.84353L5.71604 6.5654L0.369507 3.29833ZM6.59869 7.10623L0.545483 10.8165C0.695041 11.1318 0.931088 11.3982 1.22615 11.5847C1.52122 11.7711 1.86316 11.8699 2.21219 11.8696H13.2683C13.6172 11.8696 13.9591 11.7706 14.254 11.584C14.5488 11.3974 14.7847 11.1309 14.9341 10.8155L8.88085 7.10531L7.74023 7.80276L6.59869 7.10531V7.10623ZM9.76441 6.56633L15.111 9.84353V3.29833L9.76441 6.5654V6.56633Z" fill="#7E01AA"/>
</svg>
