<svg width="34" height="34" viewBox="0 0 34 34" fill="none" xmlns="http://www.w3.org/2000/svg">
<circle cx="16.6552" cy="16.6552" r="16.6552" fill="url(#paint0_linear_858_1233)"/>
<path fill-rule="evenodd" clip-rule="evenodd" d="M13.4447 23.5892C14.4851 23.6525 15.5243 23.6773 16.5616 23.675C17.5986 23.6773 18.638 23.6525 19.6785 23.5892C20.5547 23.5359 21.3859 23.2457 22.079 22.6805C22.7466 22.1361 23.1654 21.4069 23.3738 20.5901C23.5664 19.8356 23.5768 19.0771 23.5862 18.3919L23.5864 18.3784C23.5942 17.799 23.6008 17.2176 23.6022 16.6357V16.6344V16.6331C23.6008 16.0512 23.5942 15.4699 23.5864 14.8904L23.5862 14.877C23.5768 14.1918 23.5663 13.4333 23.3738 12.6787C23.1654 11.8618 22.7466 11.1327 22.079 10.5884C21.3859 10.0232 20.5547 9.73296 19.6785 9.67969C18.638 9.61642 17.5986 9.59148 16.5616 9.59391C15.5243 9.59148 14.4851 9.61642 13.4447 9.67969C12.5685 9.73296 11.7372 10.0232 11.0441 10.5884C10.3765 11.1327 9.9577 11.8619 9.74926 12.6787C9.55666 13.4334 9.5463 14.192 9.53695 14.8772L9.53677 14.8904C9.52884 15.4699 9.52224 16.0512 9.52087 16.6331V16.6344V16.6357C9.52224 17.2176 9.52884 17.799 9.53677 18.3784L9.53695 18.3917C9.5463 19.0768 9.55666 19.8355 9.74926 20.5902C9.9577 21.4069 10.3765 22.1361 11.0441 22.6805C11.7372 23.2457 12.5685 23.5359 13.4447 23.5892ZM16.5603 22.5749C15.5418 22.5772 14.5256 22.5528 13.5115 22.4911C12.8383 22.4501 12.234 22.2313 11.7393 21.828C11.2798 21.4532 10.9742 20.9409 10.8153 20.3182C10.6588 19.7051 10.6465 19.0713 10.6368 18.3634C10.6289 17.7857 10.6224 17.2096 10.621 16.6344C10.6224 16.0592 10.6289 15.4832 10.6368 14.9055C10.6465 14.1975 10.6588 13.5638 10.8153 12.9507C10.9742 12.328 11.2798 11.8156 11.7393 11.4409C12.2339 11.0376 12.8383 10.8187 13.5115 10.7778C14.5256 10.7161 15.5418 10.6916 16.5603 10.694H16.5616H16.5628C17.5812 10.6916 18.5975 10.7161 19.6116 10.7778C20.2849 10.8187 20.8891 11.0376 21.3837 11.4409C21.8432 11.8156 22.1489 12.328 22.3078 12.9506C22.4642 13.5637 22.4765 14.1975 22.4863 14.9055C22.4941 15.4832 22.5007 16.0591 22.5021 16.6344C22.5007 17.2098 22.4941 17.7857 22.4863 18.3634C22.4765 19.0713 22.4642 19.7051 22.3078 20.3182C22.1489 20.9409 21.8432 21.4532 21.3837 21.828C20.8891 22.2313 20.2849 22.4501 19.6116 22.4911C18.5975 22.5528 17.5812 22.5772 16.5628 22.5749H16.5616H16.5603Z" fill="white"/>
<path fill-rule="evenodd" clip-rule="evenodd" d="M13.1416 16.6341C13.1416 18.5228 14.6727 20.0539 16.5614 20.0539C18.4501 20.0539 19.9812 18.5228 19.9812 16.6341C19.9812 14.7455 18.4501 13.2144 16.5614 13.2144C14.6727 13.2144 13.1416 14.7455 13.1416 16.6341ZM16.5614 18.9595C15.2771 18.9595 14.236 17.9185 14.236 16.6341C14.236 15.3498 15.2771 14.3087 16.5614 14.3087C17.8457 14.3087 18.8868 15.3498 18.8868 16.6341C18.8868 17.9185 17.8457 18.9595 16.5614 18.9595Z" fill="white"/>
<path d="M21.1885 12.8115C21.1885 13.2559 20.8282 13.6161 20.3839 13.6161C19.9395 13.6161 19.5792 13.2559 19.5792 12.8115C19.5792 12.3671 19.9395 12.0068 20.3839 12.0068C20.8282 12.0068 21.1885 12.3671 21.1885 12.8115Z" fill="white"/>
<defs>
<linearGradient id="paint0_linear_858_1233" x1="16.6552" y1="0" x2="16.6552" y2="33.3103" gradientUnits="userSpaceOnUse">
<stop stop-color="#9144EE"/>
<stop offset="1" stop-color="#7E01AA"/>
</linearGradient>
</defs>
</svg>
