<svg width="14" height="57" viewBox="0 0 14 57" fill="none" xmlns="http://www.w3.org/2000/svg">
<path d="M6.9275 8.9875C7.40376 8.9875 7.81162 8.81777 8.15107 8.47832C8.48994 8.13945 8.65937 7.73189 8.65937 7.25562C8.65937 6.77936 8.48994 6.3715 8.15107 6.03205C7.81162 5.69318 7.40376 5.52375 6.9275 5.52375C6.45123 5.52375 6.04366 5.69318 5.70479 6.03205C5.36535 6.3715 5.19562 6.77936 5.19562 7.25562C5.19562 7.73189 5.36535 8.13945 5.70479 8.47832C6.04366 8.81777 6.45123 8.9875 6.9275 8.9875ZM6.9275 17.6469C4.6039 15.6696 2.86856 13.833 1.72148 12.1369C0.573828 10.4414 0 8.87204 0 7.42881C0 5.26397 0.696502 3.53931 2.08951 2.25483C3.48193 0.970362 5.0946 0.328125 6.9275 0.328125C8.7604 0.328125 10.3731 0.970362 11.7655 2.25483C13.1585 3.53931 13.855 5.26397 13.855 7.42881C13.855 8.87204 13.2815 10.4414 12.1344 12.1369C10.9867 13.833 9.25109 15.6696 6.9275 17.6469Z" fill="#7E01AA"/>
<rect x="2" y="19" width="10" height="2" fill="#7E01AA"/>

</svg>
