<svg width="15" height="16" viewBox="0 0 15 16" fill="none" xmlns="http://www.w3.org/2000/svg">
<path fill-rule="evenodd" clip-rule="evenodd" d="M1.73716 1.44172C1.89837 1.28075 2.09195 1.15588 2.30507 1.07539C2.51819 0.99489 2.74599 0.960606 2.97336 0.974806C3.20073 0.989006 3.42249 1.05137 3.62394 1.15775C3.82539 1.26414 4.00193 1.41212 4.14186 1.5919L5.79566 3.71651C6.09879 4.10624 6.20566 4.61389 6.08589 5.09299L5.58191 7.11073C5.55586 7.21523 5.55726 7.3247 5.586 7.42851C5.61474 7.53231 5.66982 7.62692 5.74591 7.70315L8.00965 9.96688C8.08597 10.0431 8.18073 10.0983 8.28471 10.127C8.38869 10.1558 8.49835 10.1571 8.60299 10.1309L10.6198 9.62691C10.8562 9.56779 11.103 9.5632 11.3415 9.61348C11.5799 9.66376 11.8038 9.76759 11.9963 9.91713L14.1209 11.57C14.8847 12.1643 14.9547 13.2929 14.2711 13.9756L13.3184 14.9283C12.6366 15.6101 11.6176 15.9095 10.6677 15.5751C8.23646 14.7196 6.02901 13.3278 4.20912 11.5028C2.38421 9.68312 0.992356 7.476 0.136792 5.04508C-0.196733 4.0961 0.102703 3.07618 0.784494 2.39439L1.73716 1.44172Z" fill="#7E01AA"/>
</svg>
