<svg width="56" height="28" viewBox="0 0 56 28" fill="none" xmlns="http://www.w3.org/2000/svg">
<path d="M43.5889 1.41066C43.2811 1.10283 42.8635 0.929891 42.4282 0.92989C41.9929 0.92989 41.5753 1.10283 41.2675 1.41066C40.9597 1.7185 40.7867 2.13601 40.7867 2.57135C40.7867 3.00669 40.9597 3.4242 41.2675 3.73204L50.0725 12.537L19.6393 12.537C19.2278 10.102 17.9165 7.91052 15.9654 6.39676C14.0142 4.883 11.5656 4.15746 9.10477 4.36395C6.64392 4.57043 4.35044 5.69386 2.67884 7.51159C1.00723 9.32933 0.079509 11.7087 0.0795096 14.1782C0.0795101 16.6477 1.00724 19.0271 2.67884 20.8448C4.35044 22.6626 6.64392 23.786 9.10477 23.9925C11.5656 24.1989 14.0142 23.4734 15.9654 21.9597C17.9165 20.4459 19.2278 18.2544 19.6393 15.8194L50.0702 15.8217L41.2675 24.6244C40.9597 24.9322 40.7867 25.3497 40.7867 25.7851C40.7867 26.2204 40.9597 26.6379 41.2675 26.9458C41.5753 27.2536 41.9929 27.4265 42.4282 27.4265C42.8635 27.4265 43.2811 27.2536 43.5889 26.9458L55.1957 15.3389C55.5036 15.0311 55.6765 14.6136 55.6765 14.1782C55.6765 13.7429 55.5036 13.3254 55.1957 13.0175L43.5889 1.41066Z" fill="#8157FB"/>
</svg>
