<svg width="34" height="34" viewBox="0 0 34 34" fill="none" xmlns="http://www.w3.org/2000/svg">
<circle cx="16.7814" cy="16.6552" r="16.6552" fill="url(#paint0_linear_858_1221)"/>
<path d="M22.4413 13.5281C21.73 13.5281 21.0736 13.2924 20.5466 12.8949C19.9422 12.4392 19.5079 11.7707 19.3545 11.0003C19.3166 10.8099 19.2961 10.6134 19.2942 10.4121H17.2623V15.9644L17.2598 19.0057C17.2598 19.8187 16.7304 20.5082 15.9963 20.7506C15.7833 20.8209 15.5533 20.8543 15.3137 20.8411C15.008 20.8243 14.7215 20.732 14.4724 20.5831C13.9425 20.2661 13.5832 19.6912 13.5734 19.0334C13.5581 18.0053 14.3892 17.1672 15.4165 17.1672C15.6193 17.1672 15.814 17.2003 15.9963 17.2604V15.7429V15.1973C15.8041 15.1689 15.6084 15.1539 15.4104 15.1539C14.286 15.1539 13.2343 15.6213 12.4826 16.4634C11.9144 17.0998 11.5736 17.9116 11.521 18.7629C11.4521 19.8812 11.8614 20.9443 12.655 21.7287C12.7716 21.8439 12.894 21.9507 13.0221 22.0493C13.7025 22.5729 14.5343 22.8568 15.4104 22.8568C15.6084 22.8568 15.8041 22.8421 15.9963 22.8137C16.8148 22.6925 17.57 22.3178 18.1658 21.7287C18.8981 21.005 19.3027 20.0441 19.307 19.0214L19.2967 14.4799C19.6459 14.7494 20.0279 14.9724 20.4378 15.1454C21.0754 15.4144 21.7514 15.5508 22.4471 15.5505V14.0751V13.5276L22.4413 13.5281Z" fill="white"/>
<defs>
<linearGradient id="paint0_linear_858_1221" x1="16.7814" y1="0" x2="16.7814" y2="33.3103" gradientUnits="userSpaceOnUse">
<stop stop-color="#9144EE"/>
<stop offset="1" stop-color="#7E01AA"/>
</linearGradient>
</defs>
</svg>
